<svg width="30" height="30" viewBox="0 0 30 30" fill="none" xmlns="http://www.w3.org/2000/svg">
<path d="M29.1911 13.6062C29.5275 13.3436 29.777 12.9774 29.9047 12.5587C30.0323 12.14 30.0318 11.69 29.903 11.2717C29.7743 10.8534 29.5238 10.4879 29.1868 10.2262C28.8497 9.96463 28.443 9.8201 28.0236 9.81292L19.8782 9.49049C19.8382 9.48759 19.7998 9.47262 19.7676 9.44738C19.7355 9.42215 19.7111 9.38772 19.6972 9.34824L16.8825 1.38233C16.7411 0.977049 16.4842 0.627097 16.1467 0.379849C15.8092 0.132601 15.4073 0 14.9955 0C14.5837 0 14.1818 0.132601 13.8443 0.379849C13.5067 0.627097 13.2499 0.977049 13.1085 1.38233L10.3028 9.37669C10.2889 9.41617 10.2645 9.4506 10.2324 9.47583C10.2002 9.50107 10.1619 9.51604 10.1218 9.51894L1.97639 9.84137C1.557 9.84855 1.15026 9.99308 0.813221 10.2547C0.476177 10.5163 0.225725 10.8819 0.0969821 11.3002C-0.0317608 11.7185 -0.0323384 12.1685 0.0953302 12.5872C0.222999 13.0058 0.472511 13.3721 0.808882 13.6347L7.19851 18.8979C7.23048 18.9242 7.25439 18.9598 7.26725 19.0003C7.28012 19.0407 7.28139 19.0843 7.27091 19.1255L5.07165 27.2905C4.95768 27.7063 4.96872 28.1488 5.10327 28.5578C5.23781 28.9667 5.48933 29.3224 5.8236 29.5762C6.15788 29.8301 6.55868 29.9699 6.97148 29.9767C7.38428 29.9834 7.78904 29.8568 8.1307 29.6139L14.8823 24.8723C14.9156 24.8482 14.9551 24.8353 14.9955 24.8353C15.0359 24.8353 15.0754 24.8482 15.1086 24.8723L21.8602 29.6139C22.1973 29.8651 22.6006 30 23.0142 30C23.4278 30 23.8311 29.8651 24.1681 29.6139C24.5025 29.3624 24.7542 29.0085 24.8888 28.601C25.0233 28.1934 25.0339 27.7521 24.9193 27.3379L22.7019 19.1444C22.6902 19.1033 22.6908 19.0594 22.7038 19.0186C22.7168 18.9779 22.7414 18.9423 22.7743 18.9168L29.1911 13.6062Z" fill="white"/>
</svg>
