<svg width="26" height="37" viewBox="0 0 26 37" fill="none" xmlns="http://www.w3.org/2000/svg">
<path d="M17.5177 8.33564C17.6946 8.14988 17.835 7.92929 17.9307 7.68647C18.0265 7.44366 18.0757 7.18339 18.0757 6.92054C18.0757 6.65769 18.0265 6.39742 17.9307 6.1546C17.835 5.91179 17.6946 5.6912 17.5177 5.50544L13.5541 1.33847C13.1971 0.963165 12.7129 0.752319 12.208 0.752319C11.7032 0.752319 11.219 0.963165 10.862 1.33847C10.505 1.71378 10.3044 2.22281 10.3044 2.75357C10.3044 3.28434 10.505 3.79337 10.862 4.16867L11.6484 4.99207C9.3165 5.24848 7.094 6.16306 5.21619 7.63895C3.33838 9.11485 1.87517 11.0971 0.981491 13.3759C0.0878117 15.6546 -0.203069 18.1451 0.13965 20.5834C0.482368 23.0218 1.44593 25.3173 2.9283 27.227C3.24746 27.6381 3.70888 27.8991 4.21108 27.9525C4.71327 28.006 5.2151 27.8475 5.60615 27.512C5.99721 27.1765 6.24547 26.6914 6.29631 26.1634C6.34715 25.6355 6.19642 25.1079 5.87727 24.6968C4.86092 23.3874 4.18882 21.8209 3.92799 20.1533C3.66716 18.4857 3.82671 16.7754 4.39073 15.1928C4.95475 13.6103 5.90354 12.2108 7.14248 11.134C8.38142 10.0571 9.86723 9.34056 11.4518 9.05569L10.862 9.6724C10.505 10.0477 10.3044 10.5567 10.3044 11.0875C10.3044 11.6183 10.505 12.1273 10.862 12.5026C11.219 12.8779 11.7032 13.0888 12.208 13.0888C12.7129 13.0888 13.1971 12.8779 13.5541 12.5026L17.5177 8.33564ZM19.7406 9.10236C19.5585 9.28331 19.4123 9.50026 19.3103 9.74077C19.2082 9.98129 19.1523 10.2406 19.1458 10.5039C19.1394 10.7672 19.1824 11.0292 19.2725 11.2749C19.3626 11.5207 19.4979 11.7453 19.6708 11.9359C20.8177 13.2061 21.6149 14.7799 21.9771 16.4893C22.3394 18.1987 22.2532 19.9794 21.7276 21.6413C21.2021 23.3032 20.2571 24.7838 18.9934 25.9249C17.7297 27.0661 16.1949 27.8249 14.5529 28.1204L15.1395 27.5037C15.4965 27.1284 15.6971 26.6193 15.6971 26.0886C15.6971 25.5578 15.4965 25.0488 15.1395 24.6735C14.7826 24.2982 14.2984 24.0873 13.7935 24.0873C13.2886 24.0873 12.8044 24.2982 12.4474 24.6735L8.48377 28.8404C8.30688 29.0262 8.16655 29.2468 8.0708 29.4896C7.97506 29.7324 7.92578 29.9927 7.92578 30.2555C7.92578 30.5184 7.97506 30.7787 8.0708 31.0215C8.16655 31.2643 8.30688 31.4849 8.48377 31.6706L12.4474 35.8376C12.8044 36.2129 13.2886 36.4237 13.7935 36.4237C14.2984 36.4237 14.7826 36.2129 15.1395 35.8376C15.4965 35.4623 15.6971 34.9533 15.6971 34.4225C15.6971 33.8917 15.4965 33.3827 15.1395 33.0074L14.3532 32.1807C16.767 31.9149 19.0618 30.9442 20.978 29.3783C22.8942 27.8124 24.3552 25.7139 25.1956 23.3203C26.036 20.9267 26.2224 18.3336 25.7335 15.8344C25.2447 13.3352 24.1002 11.0298 22.4295 9.17903C22.0821 8.79458 21.6037 8.57089 21.0995 8.55714C20.5953 8.54338 20.1065 8.73736 19.7406 9.10236Z" fill="white"/>
</svg>
