<svg width="24" height="24" viewBox="0 0 24 24" fill="none" xmlns="http://www.w3.org/2000/svg">
<path d="M9.46002 4.332C10.74 2.913 12.746 2 15 2C18.866 2 22 4.686 22 8C22 9.989 20.87 11.752 19.132 12.844C19.0887 12.8705 19.0447 12.8959 19 12.92V16.97C19 17.1691 18.9406 17.3637 18.8293 17.5288C18.718 17.6939 18.56 17.822 18.3755 17.8968C18.191 17.9715 17.9883 17.9895 17.7935 17.9484C17.5987 17.9073 17.4206 17.809 17.282 17.666L16.142 16.492C17.211 15.228 17.84 13.676 17.84 11.999C17.84 7.932 14.142 4.604 9.46002 4.332Z"/>
<path d="M10.385 17.886L6.718 21.666C6.57942 21.809 6.40132 21.9073 6.20651 21.9484C6.0117 21.9895 5.80905 21.9715 5.62452 21.8968C5.43999 21.822 5.28197 21.6939 5.17071 21.5288C5.05945 21.3637 5.00001 21.1691 5 20.97V16.92C4.95533 16.8959 4.91131 16.8705 4.868 16.844C3.129 15.752 2 13.989 2 12C2 8.686 5.134 6 9 6C12.866 6 16 8.686 16 12C16 14.726 13.879 17.028 10.974 17.758C10.7793 17.8079 10.5828 17.8506 10.385 17.886Z"/>
</svg>
