<svg width="26" height="26" viewBox="0 0 26 26" fill="none" xmlns="http://www.w3.org/2000/svg">
<g clip-path="url(#clip0_102_22)">
<path d="M13 0C11.3 0 10 1.3 10 3V9C10 10.7 11.3 12 13 12H19L23 16V12C24.7 12 26 10.7 26 9V3C26 1.3 24.7 0 23 0H13ZM17.188 3H18.906L20.594 9H19.094L18.687 7.5H17.187L16.813 9H15.5L17.188 3ZM18 4C17.9 4.4 17.788 4.888 17.687 5.188L17.407 6.5H18.594L18.312 5.187C18.113 4.888 18 4.4 18 4ZM3 10C1.3 10 0 11.3 0 13V19C0 20.7 1.3 22 3 22V26L7 22H13C14.7 22 16 20.7 16 19V13H13C11.1 13 9.594 11.7 9.094 10H3ZM7.594 12.906C9.294 12.906 10.094 14.306 10.094 15.906C10.094 17.306 9.613 18.194 8.813 18.594C9.213 18.794 9.687 18.9 10.187 19L9.813 20C9.113 19.8 8.387 19.488 7.687 19.187C7.587 19.087 7.412 19.094 7.312 19.094C6.112 18.994 5 18 5 16C5 14.3 5.994 12.906 7.594 12.906ZM7.594 14C6.794 14 6.406 14.9 6.406 16C6.406 17.2 6.794 18 7.594 18C8.394 18 8.812 17.1 8.812 16C8.812 14.9 8.394 14 7.594 14Z"/>
</g>
<defs>
<clipPath id="clip0_102_22">
<rect width="26" height="26" fill="white"/>
</clipPath>
</defs>
</svg>
