<svg width="24" height="24" viewBox="0 0 24 24" fill="none" xmlns="http://www.w3.org/2000/svg">
<path d="M19.6 19.425C19.9333 19.5583 20.25 19.529 20.55 19.337C20.85 19.145 21 18.866 21 18.5V14.775C21 14.5417 20.9333 14.3333 20.8 14.15C20.6667 13.9667 20.4833 13.85 20.25 13.8L13 12L20.25 10.2C20.4833 10.15 20.6667 10.0333 20.8 9.84999C20.9333 9.66666 21 9.45832 21 9.22499V5.49999C21 5.13332 20.85 4.85399 20.55 4.66199C20.25 4.46999 19.9333 4.44099 19.6 4.57499L4.2 11.075C3.78333 11.2583 3.575 11.5667 3.575 12C3.575 12.4333 3.78333 12.7417 4.2 12.925L19.6 19.425Z"/>
</svg>
