<svg width="24" height="24" viewBox="0 0 24 24" fill="none" xmlns="http://www.w3.org/2000/svg">
<path d="M19 3H5C3.9 3 3 3.9 3 5V19C3 20.1 3.9 21 5 21H19C20.1 21 21 20.1 21 19V5C21 3.9 20.1 3 19 3ZM13 17H8C7.45 17 7 16.55 7 16C7 15.45 7.45 15 8 15H13C13.55 15 14 15.45 14 16C14 16.55 13.55 17 13 17ZM16 13H8C7.45 13 7 12.55 7 12C7 11.45 7.45 11 8 11H16C16.55 11 17 11.45 17 12C17 12.55 16.55 13 16 13ZM16 9H8C7.45 9 7 8.55 7 8C7 7.45 7.45 7 8 7H16C16.55 7 17 7.45 17 8C17 8.55 16.55 9 16 9Z"/>
</svg>
