<svg width="734" height="914" viewBox="0 0 734 914" fill="none" xmlns="http://www.w3.org/2000/svg">
<path d="M507.199 435.674C441.372 474.874 361.071 428.687 364.844 427.883C489.285 400.825 500.28 322.317 500.28 322.317C475.437 261.616 407.719 281.157 407.719 281.157C405.759 367.299 303.232 372.15 303.232 372.15C296.646 344.201 297.009 278.943 297.009 278.943C265.933 257.216 259.641 266.438 259.641 266.438C269.441 180.198 308.906 152.395 308.906 152.395C315.482 146.27 344.872 132.501 359.964 130.718L360.503 133.109C360.503 133.109 345.244 171.211 374.487 173.72C399.095 175.876 413.08 145.584 416.892 135.97C448.889 145.888 479.426 168.085 499.741 205.423C547.8 293.76 507.199 435.674 507.199 435.674Z" fill="#2E2E2E"/>
<path d="M514.314 398.503L674.26 504.343C705.277 524.864 701.288 571.571 667.272 586.535L480.092 668.914C444.69 684.49 403.729 680.483 372.018 658.34L300.135 608.085" stroke="black" stroke-width="4.21"/>
<path d="M514.314 432.636L508.934 429.069L674.289 538.456C705.306 558.978 701.317 605.684 667.302 620.649L480.122 703.028C444.72 718.604 403.758 714.597 372.047 692.454L280.652 627.362" stroke="black" stroke-width="4.21"/>
<path d="M653.503 580.694L481.464 656.419C448.928 670.73 411.285 667.045 382.141 646.697L316.216 600.383C325.293 593.426 335.464 588.028 346.312 584.409C373.487 575.178 400.008 564.121 425.692 551.314C465.168 531.785 493.871 495.662 503.975 452.795C507.424 438.144 510.452 423.326 512.932 408.43L664.342 508.517C692.84 527.373 684.755 566.955 653.503 580.694Z" fill="#1CB0F6"/>
<path d="M210.2 800.156C210.2 800.156 240.365 787.651 246.147 778.223C246.147 778.223 247.234 799.626 241.59 806.937C235.945 814.248 202.213 833.574 200.4 831.153C198.587 828.732 210.2 800.156 210.2 800.156Z" fill="#1CB0F6"/>
<path d="M117.345 851.155C117.345 851.155 122.833 858.603 142.306 851.155C161.778 843.707 204.144 816.276 204.144 816.276C204.144 816.276 192.325 848.009 188.042 851.498C183.76 854.986 102.851 894.618 102.851 894.618C102.851 894.618 66.6792 899.763 80.311 874.038L117.345 851.155Z" fill="#1CB0F6"/>
<path d="M233.789 436.537C189.199 453.892 142.012 494.67 155.585 607.596L159.358 636.937" stroke="black" stroke-width="4.21"/>
<path d="M233.72 362.792C241.011 352.384 247.597 341.134 251.635 329.021C255.672 316.908 255.878 303.786 257.005 291.046C260.004 256.883 264.649 228.63 277.83 196.809C289.247 169.271 323.733 133.795 358.043 130.434L361.13 130.169" stroke="black" stroke-width="4.21"/>
<path d="M319.961 434.038C319.794 433.557 319.627 433.107 319.451 432.636" stroke="black" stroke-width="4.21"/>
<path d="M303.232 370.034C301.546 360.126 300.292 350.522 299.312 341.408C299.315 341.236 299.295 341.065 299.253 340.898C294.118 290.007 299.312 252.982 299.312 252.982" stroke="black" stroke-width="4.21"/>
<path d="M423.095 61.1571L415.255 64.2147C415.255 64.4597 415.255 67.5173 414.922 71.7999C414.558 76.9149 413.744 81.9879 412.492 86.9605C413.188 83.5697 414.197 75.5141 409.767 69.9085C409.699 69.7939 409.62 69.6857 409.532 69.5851C406.592 66.0473 402.966 67.4487 400.056 69.8791C398.046 71.5799 396.29 73.56 394.842 75.7591C395.35 69.2122 394.176 62.6442 391.432 56.6785C389.642 52.6089 387.268 48.8222 384.385 45.4379C388.825 60.7259 383.131 70.7317 383.131 70.7317C368.088 74.2695 357.651 73.5149 349.87 72.1723C343.314 66.0571 345.587 44.0365 345.587 44.0365C338.992 49.4265 340.579 70.2809 340.579 70.2809C339.737 64.839 339.84 59.2925 340.883 53.8855C337.607 58.5186 335.714 63.9868 335.425 69.6537L335.307 69.5949C334.852 69.4783 334.404 69.3376 333.964 69.1735C333.157 68.7489 332.375 68.2777 331.622 67.7623L327.281 64.8223C333.837 31.3749 356.759 10.3441 392.176 16.5181C394.488 16.9166 396.763 17.5066 398.978 18.2821C422.311 30.4439 423.095 61.1571 423.095 61.1571Z" fill="#1CB0F6"/>
<path d="M220.98 386.909L212.053 360.038C211.651 358.765 210.621 357.791 209.328 357.46C209.25 357.46 209.162 357.46 209.073 357.401C208.985 357.343 208.966 357.401 208.907 357.401C208.701 357.388 208.495 357.388 208.289 357.401C207.299 357.405 206.347 357.783 205.624 358.46C204.158 359.814 203.323 361.717 203.321 363.713C203.321 364.485 203.444 365.252 203.683 365.986C205.643 371.66 209.132 381.901 210.788 386.566" fill="#1CB0F6"/>
<path d="M218.961 386.909L209.338 357.46C209.259 357.46 209.171 357.46 209.083 357.401C208.995 357.343 208.975 357.401 208.916 357.401L203.869 356.421C201.174 355.922 198.479 355.383 195.784 354.883C192.55 354.236 189.297 353.697 186.073 352.923C185.312 352.708 184.53 352.576 183.74 352.531C182.747 352.528 181.791 352.911 181.075 353.599C179.596 354.952 178.759 356.867 178.772 358.871C178.767 359.634 178.889 360.393 179.134 361.116C181.3 367.466 185.426 379.481 186.739 383.126L218.961 386.909Z" fill="#1CB0F6"/>
<path d="M409.238 252.973C408.258 263.88 407.749 277.081 407.406 293.672C407.406 328.952 368.402 358.166 333.739 364.849L270.176 379.206C261.778 380.833 254.339 375.59 248.499 372.111C242.491 368.534 236.337 364.271 232.005 361.106C225.772 356.549 213.767 360.214 216.227 371.082C217.302 375.271 220.27 378.718 224.253 380.402C225.36 380.898 226.499 381.317 227.664 381.656C228.555 381.88 229.186 382.675 229.199 383.594C229.213 384.513 228.607 385.326 227.723 385.576C222.215 387.478 212.131 388.605 195.863 382.636C175.018 374.963 173.401 422.532 201.9 430.813H202.007C228.262 438.751 256.515 437.732 283.651 436.595C314.466 435.428 345.129 431.687 375.32 425.413C390.677 422.16 406.455 418.779 420.508 411.831C444.714 399.865 462.158 386.145 478.75 364.791C497.37 340.849 505.317 309.44 509.806 279.991C514.941 246.299 507.846 217.849 489.784 188.851L489.118 187.793" stroke="black" stroke-width="4.21"/>
<path d="M220.98 386.909L212.052 360.038C211.65 358.765 210.62 357.791 209.328 357.46C209.249 357.46 209.161 357.46 209.073 357.401C208.985 357.343 208.965 357.401 208.906 357.401C208.701 357.388 208.494 357.388 208.289 357.401C207.299 357.405 206.346 357.783 205.623 358.46C204.158 359.814 203.323 361.717 203.32 363.713C203.321 364.485 203.443 365.252 203.683 365.986C205.643 371.66 209.132 381.901 210.788 386.566" stroke="black" stroke-width="4.21"/>
<path d="M209.338 357.46C209.259 357.46 209.171 357.46 209.083 357.401C208.995 357.343 208.975 357.401 208.916 357.401L203.869 356.421C201.174 355.922 198.479 355.383 195.784 354.883C192.55 354.236 189.297 353.697 186.073 352.923C185.312 352.708 184.53 352.576 183.74 352.531C182.747 352.528 181.791 352.911 181.075 353.599C179.596 354.952 178.759 356.867 178.772 358.871C178.767 359.634 178.889 360.393 179.134 361.116C181.3 367.466 185.426 379.481 186.739 383.126" stroke="black" stroke-width="4.21"/>
<path d="M332.377 68.6934C332.377 81.4334 334.856 93.6148 340.972 104.865C345.872 113.901 353.065 123.005 363.355 125.994C365.635 126.652 367.998 126.982 370.372 126.974C387.835 126.896 390.56 106.208 390.56 106.208" stroke="black" stroke-width="4.21"/>
<path d="M414.334 76.0825V76.1413C413.525 82.4626 412.134 88.6957 410.179 94.7613C407.844 101.997 407.292 109.689 408.572 117.184L411.287 132.972C411.539 134.407 412.59 135.572 413.991 135.97C448.448 145.976 479.034 168.056 496.831 199.935C519.028 239.743 523.075 287.684 521.282 332.372C519.704 371.112 513.442 409.626 504.553 447.326C493.552 493.978 462.313 533.291 419.352 554.548C391.43 568.49 362.594 580.523 333.043 590.563C301.364 601.054 276.092 625.253 264.238 656.448L194.795 841.1C192.243 847.917 187.209 853.517 180.702 856.78L114.16 890.208C105.757 894.414 96.1721 895.63 86.9849 893.657C82.1103 892.605 78.3759 888.678 77.5708 883.757C76.7657 878.835 79.054 873.922 83.3393 871.372L117.326 851.155L164.062 612.897C170.718 569.881 195.856 531.928 232.868 509.017C235.306 507.531 237.847 506.221 240.473 505.097L341.785 461.105" stroke="black" stroke-width="4.21"/>
<path d="M386.483 14.2152C381.067 12.9243 375.46 12.6386 369.94 13.3724C369.714 13.3774 369.488 13.397 369.264 13.4312" stroke="black" stroke-width="4.21"/>
<path d="M361.943 130.747C361.943 130.747 344.019 171.838 376.075 173.867C404.838 175.709 415.393 136.627 415.393 136.627" stroke="black" stroke-width="4.21"/>
<path fill-rule="evenodd" clip-rule="evenodd" d="M412.08 88.4601C412.286 87.7055 415.373 76.5629 409.473 69.5461C403.574 62.5293 395.577 74.5637 394.773 75.7691C396.341 58.4917 384.336 45.3891 384.336 45.3891C388.766 60.6869 383.062 70.6829 383.062 70.6829C361.14 75.8181 349.076 71.9079 340.52 70.2223C339.679 64.7832 339.785 59.2396 340.834 53.8367C337.549 58.458 335.655 63.9225 335.375 69.5853H335.238C331.981 68.7197 328.894 67.3117 326.105 65.4203L321.763 62.4803C328.329 29.0427 351.242 7.99232 386.659 14.1663C422.076 20.3403 423.066 61.0691 423.066 61.0691L415.177 64.1365C415.177 64.1365 415.245 77.5821 412.08 88.4601V88.4601Z" stroke="black" stroke-width="4.21"/>
<path d="M346.116 86.7156V102.974C346.119 103.375 346.313 103.751 346.638 103.987C346.962 104.223 347.38 104.291 347.763 104.169C349.041 103.746 350.217 103.058 351.212 102.151" stroke="black" stroke-width="4.21"/>
<ellipse cx="331.36" cy="86.1477" rx="9.9666" ry="13.8572" transform="rotate(-21.3 331.36 86.1477)" stroke="black" stroke-width="4.21"/>
<ellipse cx="362.221" cy="90.7966" rx="9.9666" ry="13.8572" transform="rotate(-21.3 362.221 90.7966)" stroke="black" stroke-width="4.21"/>
<path d="M341.804 87.5584C341.804 87.5584 344.842 84.0892 351.212 88.1562" stroke="black" stroke-width="4.21"/>
<path d="M360.503 124.965C360.503 124.965 362.708 132.433 369.196 156.639" stroke="black" stroke-width="4.21"/>
<path d="M198.078 832.378L236.298 811.749C240.745 809.338 243.713 804.884 244.226 799.852C250.576 737.475 248.636 698.04 248.636 698.04" stroke="black" stroke-width="4.21"/>
<path d="M163.386 512.487L16.2974 409.694" stroke="black" stroke-width="4.21"/>
<path d="M155.056 540.808L16.2974 443.828" stroke="black" stroke-width="4.21"/>
<path d="M717.703 345.426V429.579C717.703 437.463 713.054 444.605 705.845 447.797L601.475 494.014L569.566 542.504C567.881 544.971 564.794 546.065 561.932 545.207C559.07 544.349 557.092 541.738 557.042 538.751V513.702L546.34 518.435C541.505 520.549 535.931 520.09 531.507 517.212C527.084 514.334 524.405 509.424 524.378 504.147V433.871C524.381 415.958 535.02 399.756 551.456 392.633L694.889 330.452C699.933 328.262 705.742 328.76 710.339 331.778C714.937 334.796 717.705 339.926 717.703 345.426Z" fill="#D7E8F0"/>
</svg>
