<svg class="force-stroke-txt-color" xmlns="http://www.w3.org/2000/svg" viewBox="0 0 902.06 778.57"><path d="M209.87,234.49c-2.8,4.68-8.66,6.66-13.7,7.67-6.44,1.32-13.1,1.67-19.62,2.25l-3.79.93h0a5.71,5.71,0,0,0-3.77,7.13v0a114.64,114.64,0,0,0,9.62,23.22l-6,6c-1.7-2.3-1.78-6.33-4.06-5.94-2.19-2.19-4.79-3.26-7.48-.33-5.26,5.75-4.41,17.7,3.32,21l-1.73,8.61a13.27,13.27,0,0,1-13,10.69L151,305.55c-9,4.55-19.21-5.29-18.5-13.4.46-5.56-.8-9.4-4.91-13.43-.27-.27,1.38-1.27,1.13-1.54-1.16-3.51-1.32-7.61-.17-9.93,2-4.14,7.89-6.56,5.18-11.08a21.58,21.58,0,0,1-2.57-6.36,21.17,21.17,0,0,1,4.27-17c4-4.8,10.5-3.51,15.81-5.21,6.47-2,9.46-8.93,16.23-11.07,3.37-1.07,6.49-.58,9.86.19,2.85.66,5.67,1.4,8.47,2.28s5.26,1.61,8,.79c3.62-1,6.41-4.38,10.36-4.41a8.79,8.79,0,0,1,5.48,1.75C212.56,222.38,212.58,230,209.87,234.49Z" transform="translate(-47.94 -26.19)" fill="#3cf"></path><path d="M86.11,369.89s-108.87-120.08,51.46-180a118.07,118.07,0,0,1,28.84-6.62c25.59-2.72,82.16-12.39,88.68-45.05" transform="translate(-47.94 -26.19)" fill="none" stroke="#ccdde2" stroke-miterlimit="10" stroke-width="4.11"></path><line x1="495.19" y1="175.59" x2="495.19" y2="175.56" fill="none" stroke="#ccdde2" stroke-miterlimit="10" stroke-width="4.11"></line><line x1="209.53" y1="391.81" x2="209.53" y2="391.77" fill="none" stroke="#000" stroke-miterlimit="10" stroke-width="4.11"></line><path d="M172.35,280.91a28.69,28.69,0,0,0-3.78-5.12c-2.19-2.19-4.79-3.26-7.48-.33-5.26,5.75-4.41,17.7,3.32,21l-1.73,8.61a13.27,13.27,0,0,1-13,10.69" transform="translate(-47.94 -26.19)" fill="none" stroke="#000" stroke-linecap="round" stroke-linejoin="round" stroke-width="4.11"></path><path d="M144.84,353.86c.44-3.34,1.53-12.11,2.58-20.47,1-7.75,1.89-15.21,2.24-17.67L151,305.55" transform="translate(-47.94 -26.19)" fill="none" stroke="#000" stroke-linecap="round" stroke-linejoin="round" stroke-width="4.11"></path><path d="M206.58,253.65s-12.77.63-15.24,11.2" transform="translate(-47.94 -26.19)" fill="none" stroke="#000" stroke-miterlimit="10" stroke-width="4.11"></path><path d="M211.22,281.58c3.48-.09,8-.6,9.64-4.13l-8.8-9.71a14,14,0,0,1-3.6-8.62c-.35-5.37.28-13.89-4.86-19.56" transform="translate(-47.94 -26.19)" fill="none" stroke="#000" stroke-miterlimit="10" stroke-width="4.11"></path><ellipse cx="201.25" cy="265.92" rx="3.89" ry="3.3" transform="translate(-178.92 210.71) rotate(-47.89)"></ellipse><line x1="154.89" y1="319.17" x2="148.26" y2="287.03" fill="none" stroke="#000" stroke-miterlimit="10" stroke-width="4.11"></line><path d="M370.9,490,328.17,525c51.41,78.4,12.5,92.79,12.5,92.79a209,209,0,0,1-22.83,3.07c-37.16,2.68-75.28-6.91-105.91-28.39-62-43.5-116-130.56-87.2-206.36a121,121,0,0,1,8.85-18.52,54.92,54.92,0,0,1,11.26-13.68,54,54,0,0,1,58-8.49,52.83,52.83,0,0,1,10.21,6.12c16.19,12.39,30.91,30,43.6,48.48A452.08,452.08,0,0,1,287,452.19c2.47,4.93,4.71,9.59,6.69,13.86,17.95-7.26,33-19.59,47-32.91C323.76,464.74,370.9,490,370.9,490Z" transform="translate(-47.94 -26.19)" fill="#353642" class="fill-bg-color-dark"></path><path d="M341,515.57c-.82.63-1.67,1.29-2.52,1.92" transform="translate(-47.94 -26.19)" fill="none" stroke="#000" stroke-miterlimit="10" stroke-width="4.11"></path><path d="M214.67,382.74q17,32.55,34,65.22c8.55,16.44,23,26.59,43.35,18.8,22.14-8.48,40-24.69,56.52-41.21S381.8,393.23,405.65,389c30.83-5.51,60,11.29,81,32.52a10.17,10.17,0,0,1-12.58,15.81,11.68,11.68,0,0,1-1.21-.88c-9.95-8.49-26.14-20.77-37.4-20.93" transform="translate(-47.94 -26.19)" fill="none" stroke="#000" stroke-miterlimit="10" stroke-width="4.11"></path><path d="M404.74,444.62c3.46,2.31,8.26,4.87,12.26,4.87" transform="translate(-47.94 -26.19)" fill="none" stroke="#000" stroke-miterlimit="10" stroke-width="4.11"></path><path d="M449.08,419.7c7.38,3.65,10.07,14.33,4.86,20.71a74.1,74.1,0,0,1-24.28,19.64c-10.28,5.13-16.88,2-27-4.26" transform="translate(-47.94 -26.19)" fill="none" stroke="#000" stroke-miterlimit="10" stroke-width="4.11"></path><path d="M432,429.27s14.62,3.62,14.23,17.81a6.8,6.8,0,0,1-.32,1.78" transform="translate(-47.94 -26.19)" fill="none" stroke="#000" stroke-miterlimit="10" stroke-width="4.11"></path><path d="M421.67,438.21s19.61,12.67,10.28,20.64" transform="translate(-47.94 -26.19)" fill="none" stroke="#000" stroke-miterlimit="10" stroke-width="4.11"></path><path d="M800.48,487.87c-23.1,63.49-87.77,65.28-95.17,65.28,3.1-6.53,3.94-18-2.85-38.1a39.23,39.23,0,0,0-.47-45c.09-.08.14-.19.22-.27a54.59,54.59,0,0,0,9.59-1.45c11.16-2.66,33.16-8.5,50.62-16.72,11.84-5.59,25.65,3.37,24.64,16.44a1.6,1.6,0,0,1-.06.52,14.35,14.35,0,0,1,13.48,19.3Z" transform="translate(-47.94 -26.19)" fill="#3fbdf1"></path><path d="M504.05,636.78c-7.78,13.35-19.89,24.72-31.59,34.64-41.19,34.86-95,52.56-149,53.25-54.18-.69-108.19-18.45-149.57-53C43.14,562.49,66.77,433.58,87.92,373.89a24.94,24.94,0,0,1,3-5.83,20.75,20.75,0,0,1,14.5-8.88c11.1,1.53,21.18,10.74,19.4,25,0,.55-.22,1.31-.27,1.86-28.78,75.8,25.24,162.86,87.2,206.36,28.11,19.73,62.53,29.43,96.73,28.8h.39q4.39-.09,8.79-.41c19.21-1.4,37.88-6,56.37-11.57h0c21.7-6.49,43.16-14.36,64.84-19.87,7.62-1.94,15.26-3.81,22.94-5.56a50.83,50.83,0,0,1,13.48-.93C501.92,584.66,520.63,608.34,504.05,636.78Z" transform="translate(-47.94 -26.19)" fill="#d7e8f0"></path><path d="M510.63,636.78c-7.78,13.35-19.9,24.72-31.6,34.64-42.83,36.28-99.34,54-155.6,53.25-54.18-.69-108.19-18.45-149.57-53C43.14,562.49,66.77,433.58,87.92,373.89a24.94,24.94,0,0,1,3-5.83,20.75,20.75,0,0,1,14.5-8.88c11.1,1.53,21.18,10.74,19.4,25,0,.55-.22,1.31-.27,1.86-28.78,75.8,25.24,162.86,87.2,206.36,28.11,19.73,62.53,29.43,96.73,28.8h.39q7.72.12,15.37-.41c19.21-1.4,37.87-6,56.37-11.57h0c21.7-6.49,43.16-14.36,64.84-19.87,7.61-1.94,15.26-3.81,22.93-5.56a50.31,50.31,0,0,1,6.91-.93C505.23,580.85,528.55,606,510.63,636.78Z" transform="translate(-47.94 -26.19)" fill="#d7e8f0"></path><path d="M332.46,724.49l13.16,18.62s79.63,3.1,123.21,39.68c8.06,6.77,3.24,19.92-7.28,19.92h0a11.13,11.13,0,0,1-7.21-2.62c-10.29-8.64-49.6-35.8-138.52-36.62-86.64-.81-119.87,26-129.06,35.77a11.17,11.17,0,0,1-8.14,3.47h-1.71c-10.8,0-15.37-13.64-6.84-20.26C206.45,754.16,288,745.14,288,745.14l13.92-21" transform="translate(-47.94 -26.19)" fill="#353642" class="fill-bg-color-dark"></path><path d="M684.87,621.24s24.39,23.17,16.78,95a32,32,0,0,1-5.2,14.34l-2.65,4a32.45,32.45,0,0,1-18.45,13.28c-15.93,4.35-44.83,14.43-62.68,33.53-7.54,8.09-1.93,21.27,9.13,21.27h0a12.52,12.52,0,0,0,10.43-5.56c7.27-10.94,29.28-34.17,82.37-33.68,59.88.55,84,24.36,91.73,34.62a11.51,11.51,0,0,0,9.19,4.62h0a11.5,11.5,0,0,0,8.39-19.34C800.56,758,772,748.49,756.24,745a32.48,32.48,0,0,1-19.61-12.91h0a32.25,32.25,0,0,1-5.89-17.34c-.88-22.27-1.34-76.33,13.75-93.47" transform="translate(-47.94 -26.19)" fill="#353642"></path><path d="M374.23,609.25c42.89-20.82,89.44-34.48,135.21-47.34C555.5,549,602,537.68,648.66,527.07c18.64-4.23,37.45-8,56-12.77" transform="translate(-47.94 -26.19)" fill="none" stroke="#000" stroke-miterlimit="10" stroke-width="4.11"></path><polyline points="366.53 423 366.56 423 366.58 423" fill="none" stroke="#000" stroke-miterlimit="10" stroke-width="4.11"></polyline><path d="M409.66,446.49c-2.69,2.66-12.29,16.87-14.7,19.42A494.15,494.15,0,0,1,352.84,506c-3.73,3.1-7.68,6.3-11.84,9.54-.82.63-1.67,1.29-2.52,1.92-28.2,21.4-65,42-99,28.8-.9-.33-1.78-.71-2.65-1.1-52.15-23.35-88.6-81.83-91.78-138.28-.11-1.84-.17-3.67-.19-5.48-.28-15.43,2-30.86,16.8-39" transform="translate(-47.94 -26.19)" fill="none" stroke="#000" stroke-miterlimit="10" stroke-width="4.11"></path><path d="M124.81,385.84l.21-1.64c3.32-26.62-34.48-35.6-43.45-10.31-21.14,59.68-44.78,188.56,86,297.76,84.41,70.51,221.07,71,305.16-.23,11.7-9.91,23.81-21.3,31.6-34.65C524,603,493.94,575.94,460,584.25" transform="translate(-47.94 -26.19)" fill="none" stroke="#000" stroke-miterlimit="10" stroke-width="4.11"></path><path d="M332.46,724.49l13.16,18.62s79.63,3.1,123.21,39.68c8.06,6.77,3.24,19.92-7.28,19.92h0a11.13,11.13,0,0,1-7.21-2.62c-10.29-8.64-49.6-35.8-138.52-36.62-86.64-.81-119.87,26-129.06,35.77a11.17,11.17,0,0,1-8.14,3.47h-1.71c-10.8,0-15.37-13.64-6.84-20.26C206.45,754.16,288,745.14,288,745.14l13.92-21" transform="translate(-47.94 -26.19)" fill="none" stroke="#000" stroke-miterlimit="10" stroke-width="4.11"></path><path d="M288,450.59c33.38-9,47.13-56.09,52.67-87.75" transform="translate(-47.94 -26.19)" fill="none" stroke="#000" stroke-miterlimit="10" stroke-width="4.11"></path><path d="M256.62,400a54.68,54.68,0,0,0,42.83-31.92,12,12,0,0,0-.3-10.8c-3.64-6.74-9.07-14.55-7.78-22.63.93-5.7,5.62-9.71,11-11a15.3,15.3,0,0,1,8.3.14A11.33,11.33,0,0,1,318,330.2c1.31,3.07-.25,6.11-2.66,8.11s-5.23,2.71-8.17,3.51c-.38.11-1.42.33-2.57.55" transform="translate(-47.94 -26.19)" fill="none" stroke="#000" stroke-miterlimit="10" stroke-width="4.11"></path><path d="M704.62,514.28s65.8-13.78,78.16-33.63a27.74,27.74,0,0,0,4.22-12" transform="translate(-47.94 -26.19)" fill="none" stroke="#000" stroke-miterlimit="10" stroke-width="4.11"></path><path d="M380.84,480.38C495.61,468.19,625.15,470,625.15,470h72.7a59.58,59.58,0,0,0,13.95-1.64c11.16-2.66,33.16-8.49,50.62-16.72,11.84-5.59,25.65,3.37,24.64,16.45a1.63,1.63,0,0,1-.06.52,14.34,14.34,0,0,1,13.48,19.26c-24.52,67.39-95.86,65.28-95.86,65.28-9.12.27-18.22.63-27.35,1.1-80.43,3.91-160.15,15.2-238.19,35.13-21.68,5.51-43.14,13.37-64.84,19.87-18.5,5.59-37.19,10.16-56.4,11.56-37.16,2.69-75.28-6.91-105.91-28.39C144.84,545.33,87.1,447.17,133.58,367.49c16.41-28.12,53.57-35.82,79.47-16,36.53,27.95,65.71,82.4,80.68,114.52" transform="translate(-47.94 -26.19)" fill="none" stroke="#000" stroke-miterlimit="10" stroke-width="4.11"></path><line x1="751.02" y1="595.05" x2="591.3" y2="595.05" fill="none" stroke="#000" stroke-miterlimit="10" stroke-width="4.11"></line><path d="M607,589h0a32.35,32.35,0,0,1,32.26-32.27H799A32.36,32.36,0,0,1,831.27,589h0" transform="translate(-47.94 -26.19)" fill="none" stroke="#000" stroke-miterlimit="10" stroke-width="4.11"></path><path d="M834.41,600.42a20.76,20.76,0,0,1-20.7,20.82H624.58a18.14,18.14,0,0,1,2.74-36.17h189A20.77,20.77,0,0,1,833.4,594,21,21,0,0,1,834.41,600.42Z" transform="translate(-47.94 -26.19)" fill="#d7e8f0"></path><path d="M834.41,600.42a20.76,20.76,0,0,1-20.7,20.82H624.58a20.83,20.83,0,1,1-.91-41.65H813.58a20.79,20.79,0,0,1,20.83,20.83Z" transform="translate(-47.94 -26.19)" fill="none" stroke="#000" stroke-miterlimit="10" stroke-width="4.11"></path><path d="M340.31,362.1l-.38,3.21A6,6,0,0,1,334,370.6H313.21a6,6,0,0,1-5.95-5.29l-2.68-23c1.15-.22,2.19-.44,2.57-.55,2.94-.8,5.79-1.48,8.17-3.51s4-5,2.66-8.11a11.33,11.33,0,0,0-7.32-6.41,15.3,15.3,0,0,0-8.3-.14l-.63-5.48a6,6,0,0,1,5.3-6.62,4.73,4.73,0,0,1,.65,0h31.87a6,6,0,0,1,6,6c0,.21,0,.43,0,.64l-.74,6.25" transform="translate(-47.94 -26.19)" fill="none" stroke="#000" stroke-miterlimit="10" stroke-width="4.11"></path><line x1="295.14" y1="312.46" x2="295.11" y2="312.68" fill="none" stroke="#000" stroke-miterlimit="10" stroke-width="4.11"></line><line x1="293.58" y1="325.67" x2="293.58" y2="325.58" fill="none" stroke="#000" stroke-miterlimit="10" stroke-width="4.11"></line><path d="M341.82,351.86h0a.62.62,0,0,0-.27,0,1.21,1.21,0,0,0-.38,0,5.17,5.17,0,0,0-.83,10.27,4.27,4.27,0,0,0,1.67,0,10.85,10.85,0,0,0,6.44-3.56A35.45,35.45,0,0,0,353,346.7a.29.29,0,0,0,0-.13,39,39,0,0,0,.69-9.4,33,33,0,0,0-.33-4,10.32,10.32,0,0,0-8.61-8.77.72.72,0,0,1-.35-.06c-4.2-.52-10.09,1.07-11.18,5.81-1,4.28,3.64,8,7.45,8.28,0,0,1,.13,2.41.22,2.82.19,7.51.16,10.61-1.48a6.94,6.94,0,0,0,1.28-.85" transform="translate(-47.94 -26.19)" fill="none" stroke="#000" stroke-miterlimit="10" stroke-width="4.11"></path><path d="M346.2,338.88h-8.37a6.22,6.22,0,0,0-6.19,5.89h0a6.24,6.24,0,0,0,5.28,6.48c6.9,1.11,14.78,1.34,16.13-4.84" transform="translate(-47.94 -26.19)" fill="none" stroke="#000" stroke-miterlimit="10" stroke-width="4.11"></path><path d="M684.87,621.24s24.39,23.17,16.78,95a32,32,0,0,1-5.2,14.34l-2.65,4a32.45,32.45,0,0,1-18.45,13.28c-15.93,4.35-44.83,14.43-62.68,33.53-7.54,8.09-1.93,21.27,9.13,21.27h0a12.52,12.52,0,0,0,10.43-5.56c7.27-10.94,29.28-34.17,82.37-33.68,59.88.55,84,24.36,91.73,34.62a11.51,11.51,0,0,0,9.19,4.62h0a11.5,11.5,0,0,0,8.39-19.34C800.56,758,772,748.49,756.24,745a32.48,32.48,0,0,1-19.61-12.91h0a32.25,32.25,0,0,1-5.89-17.34c-.88-22.27-1.34-76.33,13.75-93.47" transform="translate(-47.94 -26.19)" fill="none" stroke="#000" stroke-miterlimit="10" stroke-width="4.11" class="fill-bg-color-dark"></path><path d="M634.17,453.35V455c0,11.09-8.94,13-16.66,13.19L468.1,471.64c-6.55.16-12.06-5.56-12.2-12.72v-.3c0-7,5.16-12.85,11.62-13,0,0,83.59-2.36,148.31-4.14,1.24,3.92,4.24,6.94,8,9.31A18.32,18.32,0,0,0,634.17,453.35Z" transform="translate(-47.94 -26.19)" fill="none" stroke="#000" stroke-miterlimit="10" stroke-width="4.11"></path><path d="M713.59,295.25a11.73,11.73,0,0,1-1.22,5.26l-66.82,137a12.18,12.18,0,0,1-8,6.43,12,12,0,0,1-8.24-.84,12.19,12.19,0,0,1-6.81-11,15.81,15.81,0,0,1,.12-1.68,12,12,0,0,1,1.1-3.57l66.81-137a12.12,12.12,0,0,1,23,5.35Z" transform="translate(-47.94 -26.19)" fill="none" stroke="#000" stroke-miterlimit="10" stroke-width="4.11"></path><path d="M172.63,281.73c-.08-.28-.19-.55-.28-.82s-.22-.58-.3-.88" transform="translate(-47.94 -26.19)" fill="none" stroke="#000" stroke-linecap="round" stroke-linejoin="round" stroke-width="4.11"></path><polyline points="124.69 255.54 126.74 253.49 130.66 249.51" fill="none" stroke="#000" stroke-linecap="round" stroke-linejoin="round" stroke-width="4.11"></polyline><path d="M195.7,287.16s2.63,7.85,12.68,8.38" transform="translate(-47.94 -26.19)" fill="none" stroke="#000" stroke-miterlimit="10" stroke-width="4.11"></path><path d="M151,305.55c-9,4.55-19.21-5.29-18.5-13.4.46-5.56-.8-9.4-4.91-13.43-.27-.27-.52-.55-.76-.82a11.56,11.56,0,0,1-1.9-12.83c1.87-4.35,5.9-6.9,3.1-11.59a22.24,22.24,0,0,1-2.66-6.55,21.8,21.8,0,0,1,4.41-17.51c4.12-5,10.83-3.62,16.34-5.37,6.63-2.11,9.73-9.24,16.69-11.43,3.48-1.09,6.71-.6,10.19.19,2.93.69,5.87,1.46,8.72,2.36s5.45,1.67,8.3.82c3.73-1.09,6.6-4.52,10.66-4.55s7.18,2.36,9,5.7c2.88,5.24,2.9,12.86.19,17.38-2.8,4.68-8.66,6.66-13.7,7.67-6.44,1.32-13.1,1.67-19.62,2.25l-3.79.93h0a5.7,5.7,0,0,0-3.76,7.12,114.64,114.64,0,0,0,9.62,23.22" transform="translate(-47.94 -26.19)" fill="none" stroke="#000" stroke-miterlimit="10" stroke-width="4.11"></path><path d="M178.6,306.7s19.84,14.53,31.15,6.52,4.92-31.49,4.92-31.49" transform="translate(-47.94 -26.19)" fill="none" stroke="#000" stroke-linecap="round" stroke-linejoin="round" stroke-width="4.11"></path><path d="M318.79,301.42s-8.43-5.7-3.07-11.52-1.78-13.5-1.78-13.5" transform="translate(-47.94 -26.19)" fill="none" stroke="#000" stroke-miterlimit="10" stroke-width="4.11"></path><path d="M326.57,302.41s5.58-3.77,2-7.63,1.19-9,1.19-9" transform="translate(-47.94 -26.19)" fill="none" stroke="#000" stroke-miterlimit="10" stroke-width="4.11"></path><circle cx="317.08" cy="111.97" r="109.92" fill="none" stroke="#ccdde2" stroke-miterlimit="10" stroke-width="4.11"></circle><path d="M467.26,97.76s37.53,116.08,182,109.81c48-6,105.13,0,156,67C882.59,376.49,851.54,490,816.4,562.1" transform="translate(-47.94 -26.19)" fill="none" stroke="#ccdde2" stroke-miterlimit="10" stroke-width="4.11"></path><line x1="38.54" y1="776.46" x2="902.06" y2="776.46" fill="none" stroke="#000" stroke-miterlimit="10" stroke-width="4.11"></line></svg>