<svg class="force-stroke-txt-color" xmlns="http://www.w3.org/2000/svg" viewBox="0 0 903.24 582.87"><circle cx="783.36" cy="58.69" r="13.47" fill="#d7e8f0"></circle><circle cx="820.57" cy="63.53" r="10.97" fill="#d7e8f0"></circle><path d="M661.52,318.14s-1.92-5.51,3.73-6.55,12.7-6.79,15.87,6.55,20.27,78.17,16.78,87.91-19.76,26.11-20,22.58-2.43-44.81-6.84-61.35S661.52,318.14,661.52,318.14Z" transform="translate(-48.16 -37.39)" fill="#d7e8f0"></path><path d="M639.6,255.14c.61.47,2.94,11.55,11.48,12.69s15.33-2,9.61-13.16-9.77-27.29-12.83-19.17a17.85,17.85,0,0,1-10.74,10.39Z" transform="translate(-48.16 -37.39)" fill="#d7e8f0"></path><path d="M623.63,191.73l-.23.23a19.37,19.37,0,0,1-3.12,3.47c-3.5,2.47-10.73,2.94-14.17,1.59-.14-.15-.29-.3-.41-.44-1.47-1.65-3-3.29-4.56-5-41-44.15-118.84-101.27-229.87-105V79.23h1.36c86.15,0,180.92,46.33,244,105.62q2.73,2.55,5.38,5.14C622.52,190.58,623.1,191.14,623.63,191.73Z" transform="translate(-48.16 -37.39)" fill="#d7e8f0"></path><path d="M336.7,616c-2.59-1.61-5.18-3.32-7.7-5" transform="translate(-48.16 -37.39)" fill="none" stroke="#000" stroke-miterlimit="10" stroke-width="3.68"></path><path d="M938.36,545.94l-97,68.26c-.12-.06-.23-.15-.35-.21-6.82-4.17-9.91-11-15.58-16.25-5.41-5-12.52-8.76-20-8.76a28.24,28.24,0,0,0-18.9,7c-4.7,4.29-7.7,10.11-12.35,14.46a28.52,28.52,0,0,1-19.6,7.91,29.26,29.26,0,0,1-24.75-13.61l-1.3-2.17a29.31,29.31,0,0,0-49.5,0l-1.29,2.17A29.28,29.28,0,0,1,653,618.37a28.47,28.47,0,0,1-19.58-7.91c-4.67-4.35-7.64-10.17-12.38-14.46a28.22,28.22,0,0,0-18.9-7c-7.49,0-14.61,3.73-20,8.76-5.67,5.26-8.75,12.08-15.57,16.25a28.62,28.62,0,0,1-30.43,0c-6.82-4.17-9.91-11-15.58-16.25-5.41-5-12.52-8.76-20-8.76a28.29,28.29,0,0,0-18.9,7c-4.7,4.29-7.7,10.11-12.34,14.46a28.54,28.54,0,0,1-19.61,7.91A29.26,29.26,0,0,1,425,604.76l-1.29-2.17a29.32,29.32,0,0,0-49.51,0l-1.29,2.17c-6.22,10.47-19.56,15.32-31.24,12.66-14.3-3.28-18-17.51-29.57-24.28-3.23-1.88-6.92-2.82-10.34-4.33-10.72-4.67-17.84-14.55-26.31-22.19L300.23,589c-2.35-2.12-3.83-9-5.45-12a90.56,90.56,0,0,0-8.39-12.67c-6.31-8-13.06-15.46-19.38-23.49-14.36-18.24-28.92-36.32-43.26-54.58-9.69-12.34-19.28-24.76-28.64-37.36-6.74-9.09-22-25.17-12-36.94a12.7,12.7,0,0,1,8.09-4c13.52-1.82,29.34,2.61,42.78,4.25,31.19,3.83,62.35,7.86,93.53,11.74,41.72,5.16,83.49,10.3,125.14,16.39l7.06,1.07,2.47.38c1.24.21,2.18.39,2.79.47l.77.12h.15L932,518.22a15.36,15.36,0,0,1,6.36,27.72Z" transform="translate(-48.16 -37.39)" fill="#1cb0f6"></path><path d="M841.42,614.21,938.36,546A15.35,15.35,0,0,0,932,518.23l-756.34-123c-13.67-2.2-23.08,13.35-14.73,24.43L250,538a350.35,350.35,0,0,0,49.89,51.1h0" transform="translate(-48.16 -37.39)" fill="none" stroke="#000" stroke-miterlimit="10" stroke-width="3.68"></path><path d="M885.68,589a29.24,29.24,0,0,1-44.62,25c-6.82-4.18-9.9-11-15.58-16.27-5.41-5-12.5-8.75-20-8.75a28.29,28.29,0,0,0-18.9,7c-4.71,4.3-7.71,10.11-12.36,14.46a28.57,28.57,0,0,1-19.6,7.9,29.28,29.28,0,0,1-24.75-13.61l-1.29-2.17a29.31,29.31,0,0,0-49.5,0l-1.3,2.17A29.25,29.25,0,0,1,653,618.38a28.55,28.55,0,0,1-19.59-7.9c-4.66-4.35-7.65-10.16-12.36-14.46a28.29,28.29,0,0,0-18.9-7c-7.52,0-14.62,3.72-20,8.75-5.68,5.27-8.76,12.09-15.58,16.27a28.69,28.69,0,0,1-30.45,0c-6.82-4.18-9.9-11-15.57-16.27-5.41-5-12.51-8.75-20-8.75a28.29,28.29,0,0,0-18.9,7c-4.71,4.3-7.7,10.11-12.36,14.46a28.55,28.55,0,0,1-19.59,7.9A29.26,29.26,0,0,1,425,604.77l-1.3-2.17a29.31,29.31,0,0,0-49.5,0l-1.29,2.17a29.28,29.28,0,0,1-24.75,13.61,28.57,28.57,0,0,1-19.6-7.9c-4.65-4.35-7.65-10.16-12.36-14.46a28.29,28.29,0,0,0-18.9-7c-7.52,0-14.61,3.72-20,8.75-5.68,5.27-8.76,12.09-15.58,16.27a29.24,29.24,0,0,1-44.62-25" transform="translate(-48.16 -37.39)" fill="none" stroke="#000" stroke-miterlimit="10" stroke-width="3.68"></path><path d="M679.62,312.14c7.67,29.75,13.11,60.26,19.19,90" transform="translate(-48.16 -37.39)" fill="none" stroke="#000" stroke-linecap="round" stroke-linejoin="round" stroke-width="3.68"></path><path d="M50,618.37V400.43C50,223.06,193.8,79.26,371.17,79.26c86.16,0,180.93,46.33,244,105.62q2.73,2.55,5.38,5.14c.55.56,1.14,1.12,1.67,1.71" transform="translate(-48.16 -37.39)" fill="none" stroke="#000" stroke-linecap="round" stroke-linejoin="round" stroke-width="3.68"></path><path d="M646.58,225.41a305.37,305.37,0,0,1,14.11,29.28c.29.74.62,1.44.91,2.18,1,2.41,2,4.82,2.88,7.26" transform="translate(-48.16 -37.39)" fill="none" stroke="#000" stroke-linecap="round" stroke-linejoin="round" stroke-width="3.68"></path><path d="M814.26,167.08s-12.71,23.6,17.66,25.56,50.18-22.2,50.18-22.2" transform="translate(-48.16 -37.39)" fill="none" stroke="#000" stroke-linecap="round" stroke-linejoin="round" stroke-width="3.68"></path><path d="M756.87,366.14c4.56,1.94,9.2,3.85,13.93,5.64a71.65,71.65,0,0,0-34.86.15c-1.94.53-17.86,7.24-20,6.92.31-7,3.11-31.87,5-36C729.13,346.77,750.52,363.43,756.87,366.14Z" transform="translate(-48.16 -37.39)" fill="#2e2e2e"></path><path d="M943.47,290.14l-9.38,25.55s-23.16-53-75-32c0,0-8.16,31.37-51.15,22.9-44.32-8.72-69.78-19.65-68.7-25.61,1.17-6.41,7.08-18.44,8.45-17.53a116.88,116.88,0,0,1,9.92-20.86c1.75-2.89,1.86,0,1.95-2,1.38-29.79-25.26-36-25.26-36,22.52-21.25,50.77-34.16,79.61-39h0s-9.44,19.85,6.43,24.55,33.87,5.67,65.85-20.72C886.21,169.48,974.25,187.32,943.47,290.14Z" transform="translate(-48.16 -37.39)" fill="#2e2e2e" class="fill-bg-color-dark"></path><path d="M922.25,336.76c-2.44,12.59-27.25,133.31-87.36,158.3,11.14-53.3-29.25-96.8-29.25-96.8-7.18-11.73-16.14-18.87-25.25-23,39,13.14,81.77,17.35,116.34-10.52A128.84,128.84,0,0,0,922.25,336.76Z" transform="translate(-48.16 -37.39)" fill="#2e2e2e" class="fill-bg-color-dark"></path><path d="M814.75,412.05c-9.7-16-21.78-33.31-43.86-39.69-23.72-6.88-50.82-.7-63.23,17-10.11,14.46-19.49,29.31-29.48,43.89-2.91,4.29-5.91,8.58-9,12.81-3.88,5.41-7.79,10.79-11.67,16.17-2.44,3.38-4.85,6.76-7.29,10.11" transform="translate(-48.16 -37.39)" fill="none" stroke="#000" stroke-miterlimit="10" stroke-width="3.68"></path><path d="M714.39,382A160.58,160.58,0,0,0,692.79,372" transform="translate(-48.16 -37.39)" fill="none" stroke="#000" stroke-miterlimit="10" stroke-width="3.68"></path><path d="M490,446.35C505.52,434.68,521.07,423,536.33,411c25.92-20.43,51.23-42.63,85.3-47.65A135.55,135.55,0,0,1,671,365.37" transform="translate(-48.16 -37.39)" fill="none" stroke="#000" stroke-miterlimit="10" stroke-width="3.68"></path><path d="M922.46,335.57S893.07,497.5,813.91,499.51" transform="translate(-48.16 -37.39)" fill="none" stroke="#000" stroke-miterlimit="10" stroke-width="3.68"></path><line x1="736.64" y1="436.77" x2="724.48" y2="454.93" fill="none" stroke="#000" stroke-miterlimit="10" stroke-width="3.68"></line><path d="M599.26,464.14c-.36-.06,5.75-3.59,13.17-7.78a37.84,37.84,0,0,1,45.12,5.93h0" transform="translate(-48.16 -37.39)" fill="none" stroke="#000" stroke-miterlimit="10" stroke-width="3.68"></path><path d="M636,246.31c1.85,4.18,5.31,11.57,7.2,16.19" transform="translate(-48.16 -37.39)" fill="none" stroke="#000" stroke-linecap="round" stroke-linejoin="round" stroke-width="3.68"></path><path d="M678.18,433.3C675.92,390.79,668,340,660,312.37" transform="translate(-48.16 -37.39)" fill="none" stroke="#000" stroke-linecap="round" stroke-linejoin="round" stroke-width="3.68"></path><path d="M737.71,281a274,274,0,0,1,23.22-42.34" transform="translate(-48.16 -37.39)" fill="none" stroke="#000" stroke-linecap="round" stroke-linejoin="round" stroke-width="3.68"></path><path d="M720.2,341.14c-2.88,15-5.15,28.24-6.53,38.89" transform="translate(-48.16 -37.39)" fill="none" stroke="#000" stroke-linecap="round" stroke-linejoin="round" stroke-width="3.68"></path><path d="M826.45,164q-6.3.57-12.55,1.61c-28.84,4.85-57.09,17.76-79.61,39A141.66,141.66,0,0,0,719,221.56c-5.38,6.94-10.38,19.26-20,20.87-10.76,1.77-19.49-8.87-25.48-16.22-9.59-11.76-19.26-23.43-28.34-35.6-4.12-5.53-8-12.43-15.29-14.11-5.88-1.35-12.52,2.88-17.1,6.11" transform="translate(-48.16 -37.39)" fill="none" stroke="#000" stroke-linecap="round" stroke-linejoin="round" stroke-width="3.68"></path><path d="M642.42,229.68c3.81-1.29,4.67,3.25,4.67,3.25a10.51,10.51,0,0,1-4.27,9.77c-5.05,4-11.93,5.41-18.25,5.19-3-.1-6.87-.73-8.76-3.28s-2-6.09-1.44-9.2" transform="translate(-48.16 -37.39)" fill="none" stroke="#000" stroke-linecap="round" stroke-linejoin="round" stroke-width="3.68"></path><path d="M597.31,189.57A16.45,16.45,0,0,0,589.46,200a7.63,7.63,0,0,0,4.54,9.1,40.31,40.31,0,0,0,28.38,2.07c5-1.49,8.19-4.67,11.63-8.33a8.18,8.18,0,0,0-.41-11.56l-.19-.17a8.33,8.33,0,0,0-7.22-1.79,7.45,7.45,0,0,0-2.65,1.26A9,9,0,0,0,622,192a20.1,20.1,0,0,1-3.11,3.47c-4.34,3.08-14.57,3.05-15.9.27" transform="translate(-48.16 -37.39)" fill="none" stroke="#000" stroke-linecap="round" stroke-linejoin="round" stroke-width="3.68"></path><path d="M636.11,198.26a11.36,11.36,0,0,1,6.21,5c4.18,7.77-4.71,15.35-11.07,17.79-7.43,2.84-15.47,2.81-23.27,2-3.66-.37-8.09-.3-10.81-3.19a9,9,0,0,1-2.21-8.5,5.91,5.91,0,0,1,.63-1.49" transform="translate(-48.16 -37.39)" fill="none" stroke="#000" stroke-linecap="round" stroke-linejoin="round" stroke-width="3.68"></path><path d="M642.67,210.88s6.24,2.75,5.62,9.36c-.72,7.67-8,11.58-14.71,13.41a60.2,60.2,0,0,1-18.47,1.8,21.63,21.63,0,0,1-4.87-.66c-4.87-1.37-8.8-6.6-7.6-11.74a2,2,0,0,1,.14-.52" transform="translate(-48.16 -37.39)" fill="none" stroke="#000" stroke-linecap="round" stroke-linejoin="round" stroke-width="3.68"></path><path d="M657.68,247.79a36.21,36.21,0,0,1,15.8-1.66,36.87,36.87,0,0,1,15.85,5.17c5,3.27,9.51,7.63,14.42,11.11,10.43,7.43,21.48,13.59,32.79,19.54,25.52,13.41,68,25.37,81.61,24.92l1.74-.08c10-.56,20-3.35,27.94-9.54A42.74,42.74,0,0,0,861.23,279a44.89,44.89,0,0,0,3.24-17.44c-.05-1.89,0-5.76-1.78-7" transform="translate(-48.16 -37.39)" fill="none" stroke="#000" stroke-linecap="round" stroke-linejoin="round" stroke-width="3.68"></path><path d="M661.6,256.87c5.29,0,5,6.58,1.23,8.73a11.53,11.53,0,0,1-1.94.85l-.64.18" transform="translate(-48.16 -37.39)" fill="none" stroke="#000" stroke-linecap="round" stroke-linejoin="round" stroke-width="3.68"></path><path d="M882,169.48q4.93,1.32,9.87,3l1.12.36c16.37,5.52,33.3,14.11,43.45,28.66,10.28,14.81,13.84,33.13,13,50.94-1.94,41.92-19.58,85.39-52.74,112.17-19.37,15.63-43.67,21.9-68.29,20.54a169.28,169.28,0,0,1-35.94-6.28c-12.57-3.5-25.22-7.68-36.92-13.5-3.72-1.85-7.37-3.86-10.91-6-11.91-7.29-22.65-16.28-33-25.64-4.86-4.42-9.84-8.8-14.55-13.36-4-3.85-8.16-7.93-13.53-9.71a18.42,18.42,0,0,0-6.51-.9c-6.85.32-13.35,3.09-20.28,2.18-19.73-2.56-26.66-21.14-29.37-38.48-.73-4.73-1-11.23,3.94-13.88a16.41,16.41,0,0,1,2.75-1.21,7.4,7.4,0,0,1,8.57,3.39,12,12,0,0,0,13.75,6l3.77-1,.64-.18" transform="translate(-48.16 -37.39)" fill="none" stroke="#000" stroke-linecap="round" stroke-linejoin="round" stroke-width="3.68"></path><path d="M604.7,197.08l-.44-.5c-1.47-1.65-3-3.29-4.56-5-41-44.15-118.85-101.27-229.88-105V79.2" transform="translate(-48.16 -37.39)" fill="none" stroke="#000" stroke-miterlimit="10" stroke-width="3.68"></path><path d="M891.31,82v-.09a28.45,28.45,0,0,0-8.4-15.85c-6.86-6.3-16.63-8.23-25.41-8.42a25.65,25.65,0,0,0-18.79,7.69c-3.83-4.62-1.39-10.67-1.39-10.67,3-6.84,8-9.42,14-9.4,15.28,0,36.5,17.26,43.79,23.66,1.07.93,1.83,1.64,2.24,2C901.71,75.08,895.71,98.14,891.31,82Z" transform="translate(-48.16 -37.39)" fill="#1cb0f6"></path><path d="M851.29,45.27c5.54-4.5,15.51-9.42,28.67-2.86,14.82,7.4,15.8,19.93,15.12,26.52Z" transform="translate(-48.16 -37.39)" fill="#1cb0f6"></path><path d="M860.81,146.73s-38,11.14-34.51-36.1a204.17,204.17,0,0,1,4.81-30c.25-1,.48-2,.73-3.07a26,26,0,0,1,6.76-12.18" transform="translate(-48.16 -37.39)" fill="none" stroke="#000" stroke-linecap="round" stroke-linejoin="round" stroke-width="3.68"></path><path d="M891.2,81.92V82c2.53,12.81-1.41,26.16-1.68,27" transform="translate(-48.16 -37.39)" fill="none" stroke="#000" stroke-linecap="round" stroke-linejoin="round" stroke-width="3.68"></path><path d="M889.52,109.14h0c4-5.27,12.47-.39,9.65,5.6-2.94,6.25-12,12.23-12,12.23l-5.65,44.58" transform="translate(-48.16 -37.39)" fill="none" stroke="#000" stroke-linecap="round" stroke-linejoin="round" stroke-width="3.68"></path><path d="M891.2,81.92c-4.45-16-25.43-9.32-42.32-11.78-5.37-.78-8.51-2.63-10.28-4.8a25.65,25.65,0,0,1,18.79-7.69c8.78.19,18.55,2.12,25.41,8.42A28.45,28.45,0,0,1,891.2,81.92Z" transform="translate(-48.16 -37.39)"></path><path d="M891.22,82v-.09a28.45,28.45,0,0,0-8.4-15.85c-6.86-6.3-16.63-8.23-25.41-8.42a25.65,25.65,0,0,0-18.79,7.69c-3.83-4.62-1.39-10.67-1.39-10.67,3-6.84,8-9.42,14-9.4,15.28,0,36.5,17.26,43.79,23.66,1.07.93,1.83,1.64,2.24,2C901.62,75.08,895.62,98.14,891.22,82Z" transform="translate(-48.16 -37.39)" fill="none" stroke="#000" stroke-linecap="round" stroke-linejoin="round" stroke-width="3.68"></path><path d="M851.2,45.27c5.54-4.5,15.51-9.42,28.67-2.86,14.82,7.4,15.8,19.93,15.12,26.52" transform="translate(-48.16 -37.39)" fill="none" stroke="#000" stroke-linecap="round" stroke-linejoin="round" stroke-width="3.68"></path><circle cx="820.57" cy="63.53" r="15.47" fill="none" stroke="#000" stroke-linecap="round" stroke-linejoin="round" stroke-width="3.68"></circle><circle cx="783.36" cy="58.69" r="13.47" fill="none" stroke="#fff" stroke-linecap="round" stroke-linejoin="round" stroke-width="3.68"></circle><circle cx="783.36" cy="58.69" r="15.47" fill="none" stroke="#000" stroke-linecap="round" stroke-linejoin="round" stroke-width="3.68"></circle><polyline points="805.34 60.86 798.77 60 794.8 78.24 801.64 78.31" fill="none" stroke="#000" stroke-linecap="round" stroke-linejoin="round" stroke-width="3.68"></polyline><path d="M895.84,87.14A35.44,35.44,0,0,1,895,107s-5.79,3.36-4.06-3.09,1-16.5,1-16.5Z" transform="translate(-48.16 -37.39)"></path><line x1="786.73" y1="107.83" x2="776.87" y2="137.08" fill="none" stroke="#000" stroke-linecap="round" stroke-linejoin="round" stroke-width="3.68"></line><path d="M869.62,123.74c1.82-1.91,1.24,4.57,1.34,5.49a8.11,8.11,0,0,1-5.81,5.93c-6.8,1.5-9.43.94-15.4-2.63-1-.6-3-1.68-3-3,7.06.43,16.75-.25,22.28-5.12C869.18,124.17,869.41,124,869.62,123.74Z" transform="translate(-48.16 -37.39)" fill="none" stroke="#000" stroke-miterlimit="10" stroke-width="3.68"></path><path d="M862.79,100.23a9.32,9.32,0,0,1,7.13,2" transform="translate(-48.16 -37.39)" fill="none" stroke="#000" stroke-linecap="round" stroke-linejoin="round" stroke-width="3.68"></path><path d="M834.51,96.14a9.32,9.32,0,0,1,7.13,2" transform="translate(-48.16 -37.39)" fill="none" stroke="#000" stroke-linecap="round" stroke-linejoin="round" stroke-width="3.68"></path><path d="M780.39,375.21c-3.24-1.08-6.41-2.23-9.59-3.41A58.18,58.18,0,0,1,780.39,375.21Z" transform="translate(-48.16 -37.39)" fill="#2e2e2e"></path><path d="M459.71,441.44l2.47.38C461.48,441.73,460.62,441.59,459.71,441.44Z" transform="translate(-48.16 -37.39)" fill="#3fbdf1"></path><path d="M465.74,442.41l-.77-.12Z" transform="translate(-48.16 -37.39)" fill="#3fbdf1"></path></svg>