<svg id="Layer_2" data-name="Layer 2" xmlns="http://www.w3.org/2000/svg" viewBox="0 0 904.82 628.87"><path d="M890.44,298.56c12.3,15.46,24,34.62,34.58,58.23,64.42,143.86-16.1,216.87-16.1,216.87" transform="translate(-47.59 -43.84)" fill="none" stroke="#9f9f9f" stroke-miterlimit="10" stroke-width="4.83"/><rect x="629.06" y="66.45" width="213.78" height="291.39" rx="16.64" fill="none" stroke="#ccdde2" stroke-miterlimit="10" stroke-width="4.83"/><path d="M217.59,412.63S122,304.2,241.2,250.51s142.8-61.15,134.2-117,59-112.72,165.31-75.14,108.44,108.4,100.9,163.15c-4.28,31.21,13.43,38.71,35,37.14" transform="translate(-47.59 -43.84)" fill="none" stroke="#9f9f9f" stroke-miterlimit="10" stroke-width="4.83"/><path d="M883.7,620.45a41,41,0,0,1-4.54,17.17,7.85,7.85,0,0,1-.38.77,64.88,64.88,0,0,1-19.71,21.74l-.29.2a65.79,65.79,0,0,1-24.32,9.95H927S914.62,493.73,800.84,407.83c-110.11-83.12-213.2-43.06-219.74-40.38a47.26,47.26,0,0,1,2.67,17.84s8.28,4.31,9.66,19.74,4.26,58.33-23.43,66.41c0,0-24.86-.61-31.43-10.15s-8.15-7.6-10.73-5.18c-2,1.83-14.07,8.37-19.64,11.37a11.43,11.43,0,0,1,2.09.29s3.19,26.92,42.22,69.11a54,54,0,0,1,3.74,4.38Q565.09,549,576.12,557l44.54,32.59a8.47,8.47,0,0,0,3.48,1.77,16.27,16.27,0,0,0,7.6.07c5.18-1,40.55-4.61,63.44-6.89a13.86,13.86,0,0,0,1.58-.16l3-.29c.48,0,1-.1,1.42-.13l2.7-.26c1.32-.13,2.51-.26,3.61-.35l3-.29c2.65-.26,4.22-.42,4.35-.42a121.59,121.59,0,0,0,16.27-1.58c5.15-1,9.85-2.61,11.07-5.28h0a3.63,3.63,0,0,0,.25-1.78h0a10.06,10.06,0,0,0-2.06-4.64c-4.7-6.31-15.62-11.72-16.42-12.11h-.07l-.22-.16-65-50.5h-.07s9.79-104.44,99-78.74c0,0,.42.29,1.19.93,3.48,2.68,14.43,11.56,30.53,28.15.42.45.87.9,1.32,1.38,1.71,1.74,3.39,3.55,5.06,5.32,11.3,12.08,24.67,27.47,39.42,46.66l.1.1c16.9,22,29.08,42.16,37,60v.06c8.57,19.39,12.18,36,11.47,49.25A5.56,5.56,0,0,1,883.7,620.45ZM614.63,440.94c-2.64-30.43,12.17-41.45,13-42.06-21.06,38.1,18,96.5,19.37,98.76C645.88,496.7,617.27,471.36,614.63,440.94Z" transform="translate(-47.59 -43.84)" fill="#353642"/><path d="M558.69,435a38.45,38.45,0,0,1-3.42,2.22l-6.86-12c15.82-8.09,20.26-22.35,13.3-30.18a15.34,15.34,0,0,0-7.24-4.48c-7-2.12-11.85,1-15.14,5.19a35.64,35.64,0,0,0-5.8,12.14l-3.34-38.52-.26-3s-7.28-3.61-27-.39-23.35,14.11-31.82,9.28-13.27-4.44-13.27-4.44c-2.41,8.85-8.86,8.85-8.86,8.85a20.13,20.13,0,0,1-4.47-1.09c-9.15-8.41-11.63-23-11.63-23,9.6-1.19,10.34-10.43,9.24-18,5.32,3.16,12.82,3.38,23.35-3.38,30.21-19.32,61.19-8.86,72.08-7.25,4.86.71,10.18-1,14.59-3a7.82,7.82,0,0,0,2.32,2.57,57.86,57.86,0,0,1,17.71,19.74C600.52,399.22,569.44,427.36,558.69,435Z" transform="translate(-47.59 -43.84)" fill="#1cb0f6"/><path d="M445.52,670.3h11.4a18.42,18.42,0,0,0,18.39-18.39V639.15a8.85,8.85,0,0,0-8.85-8.85H398.27A20.66,20.66,0,0,1,377.64,651H131.22a19.35,19.35,0,0,0,19.33,19.33h334a3.32,3.32,0,0,0,3.32-3.3V646.27a15.17,15.17,0,1,1,30.34,0V667a3.31,3.31,0,0,0,3.3,3.32H927S914.62,493.71,800.84,407.82c-110.11-83.12-213.2-43.06-219.74-40.38l-.32.12" transform="translate(-47.59 -43.84)" fill="none" stroke="#000" stroke-miterlimit="10" stroke-width="4.83"/><path d="M467.09,410.66a5.62,5.62,0,1,1-5.63-5.64,5.12,5.12,0,0,1,1.29.16,2.85,2.85,0,0,0-2,2.74,2.92,2.92,0,0,0,2.89,2.93h0a3,3,0,0,0,2.9-2.51A5.6,5.6,0,0,1,467.09,410.66Z" transform="translate(-47.59 -43.84)"/><path d="M506.1,412.23a5.64,5.64,0,1,1-5.65-5.63h0a2.69,2.69,0,0,1,.8.09,2.85,2.85,0,0,0-1.67,2.61,2.9,2.9,0,0,0,5.8.26A5.41,5.41,0,0,1,506.1,412.23Z" transform="translate(-47.59 -43.84)"/><path d="M551.09,316c-.65,4.38.16,8.22,3.38,10.5a57.86,57.86,0,0,1,17.71,19.74c33.82,63.19-16.91,91-16.91,91l-6.86-12c19.75-10.08,21.77-29.82,6.06-34.66s-20.94,17.33-20.94,17.33l-3.6-41.55s-7.28-3.61-27-.39-23.35,14.11-31.82,9.28-13.27-4.44-13.27-4.44c-2.41,8.85-8.86,8.85-8.86,8.85-18.9-2.41-23.34-28.56-23.34-28.56,9.59-1.2,10.33-10.44,9.24-18,5.31,3.16,12.82,3.39,23.35-3.38,30.21-19.32,61.19-8.85,72.07-7.24C537.82,323.57,546.45,319,551.09,316Z" transform="translate(-47.59 -43.84)" fill="none" stroke="#000" stroke-linecap="round" stroke-linejoin="round" stroke-width="4.83"/><path d="M568.53,629.36l7.47-3,5.6,15.11-.88,27.42-7.57,1.37L544.42,669s2-16.72,8.11-24.67S568.53,629.36,568.53,629.36Z" transform="translate(-47.59 -43.84)" fill="#1cb0f6"/><path d="M437.72,388.9s7.65-13.73,23.75-12.3" transform="translate(-47.59 -43.84)" fill="none" stroke="#000" stroke-miterlimit="10" stroke-width="4.83"/><path d="M493,376.6s18.4-4.13,24.84,6.1" transform="translate(-47.59 -43.84)" fill="none" stroke="#000" stroke-miterlimit="10" stroke-width="4.83"/><path d="M502.46,441.22s11,6.37,19.05-4.34" transform="translate(-47.59 -43.84)" fill="none" stroke="#000" stroke-miterlimit="10" stroke-width="4.83"/><path d="M452,378.8s-7.83,92.11,50.56,90.41c10-.29,19.94-6.86,29.44-17.43" transform="translate(-47.59 -43.84)" fill="none" stroke="#000" stroke-miterlimit="10" stroke-width="4.83"/><path d="M555.27,460.16,532,451.78s5.77,18.44,34.35,19.85,38.17-64.18,17.17-90.57" transform="translate(-47.59 -43.84)" fill="none" stroke="#000" stroke-linejoin="round" stroke-width="4.83"/><path d="M646.25,644.94s-21.33,17.31-6.84,25.36" transform="translate(-47.59 -43.84)" fill="none" stroke="#000" stroke-miterlimit="10" stroke-width="4.83"/><path d="M629.75,628.83s-37,20.94-5.23,41.47" transform="translate(-47.59 -43.84)" fill="none" stroke="#000" stroke-miterlimit="10" stroke-width="4.83"/><path d="M617.27,612.73s-49.11,23-11.27,57.57" transform="translate(-47.59 -43.84)" fill="none" stroke="#000" stroke-miterlimit="10" stroke-width="4.83"/><path d="M823.79,670.3s59.58,0,60.38-57.57S768.64,410.6,693.36,390.49s-78.51,35-78.51,37.26-4.42,26,14.9,51.33c14.92,19.58,80.82,68.46,110.06,89.7a6.54,6.54,0,0,1-3.23,11.8L607.26,593h-.08c-1.22.22-46.86,8.64-60.76,22.94,0,0-7.79,5.77-3.76,14.63s16.41,5.94,16.75,5.61" transform="translate(-47.59 -43.84)" fill="none" stroke="#000" stroke-miterlimit="10" stroke-width="4.83"/><circle cx="452.88" cy="362.74" r="16.1" fill="#fff" opacity="0.26" style="isolation:isolate"/><circle cx="412.02" cy="361.15" r="16.1" fill="#fff" opacity="0.26" style="isolation:isolate"/><path d="M598.78,626.82c-5.66-1.58-14.91-3-24.44.06a35.39,35.39,0,0,0-12.63,7.19c-.8.7-1.57,1.41-2.31,2.12a57.17,57.17,0,0,0-4.51,4.95,1.27,1.27,0,0,1-.74.43c-3.55.49-26.92,4.19-26.8,16,.11,10.61,11.73,12.35,15.73,12.63a1.21,1.21,0,0,0,1.31-1.09V669c0-3.78.86-15.63,10.21-27.55" transform="translate(-47.59 -43.84)" fill="none" stroke="#000" stroke-miterlimit="10" stroke-width="4.83"/><path d="M388.22,543.47C391,565.56,373.79,575.55,355,577" transform="translate(-47.59 -43.84)" fill="none" stroke="#000" stroke-miterlimit="10" stroke-width="4.83"/><path d="M327.74,572.42a39.7,39.7,0,0,1-20.42-40.64c3-21.25,21-37.55,38.62-47.89,37-21.71,120.38-6,134.39-2.8,10.74,2.46,19.72-5.94,23.36-10a1.22,1.22,0,0,1,1.71-.1,1.27,1.27,0,0,1,.39.75c7.69,45,97,106.08,117.66,119.75" transform="translate(-47.59 -43.84)" fill="none" stroke="#000" stroke-miterlimit="10" stroke-width="4.83"/><path d="M410.75,528.19l-29.57,18.35a14.86,14.86,0,0,1-20.46-4.76c-.26-.42-.5-.86-.72-1.3h0a14.82,14.82,0,0,1,5.72-19.3l45-26.81" transform="translate(-47.59 -43.84)" fill="none" stroke="#000" stroke-miterlimit="10" stroke-width="4.83"/><circle cx="452.88" cy="362.74" r="16.1" fill="none" stroke="#000" stroke-miterlimit="10" stroke-width="4.83"/><circle cx="412.02" cy="361.15" r="13.69" fill="none" stroke="#fff" stroke-miterlimit="10" stroke-width="4.83"/><circle cx="412.02" cy="361.15" r="16.1" fill="none" stroke="#000" stroke-miterlimit="10" stroke-width="4.83"/><line x1="436.86" y1="361.15" x2="428.12" y2="361.15" fill="none" stroke="#000" stroke-miterlimit="10" stroke-width="4.83"/><path d="M484.45,427.75h-5.76a2.46,2.46,0,0,1-2.46-2.46,2.32,2.32,0,0,1,0-.46L480.08,405" transform="translate(-47.59 -43.84)" fill="none" stroke="#000" stroke-miterlimit="10" stroke-width="4.83"/><path d="M368.88,482.7s-20.53,4.43-27.77,35.43c-4.4,18.82-10.44,42.83-14.5,58.79a13.87,13.87,0,0,0,10,16.86,14.12,14.12,0,0,0,3.42.43h0a13.87,13.87,0,0,0,13.54-10.85l8.59-38.54" transform="translate(-47.59 -43.84)" fill="none" stroke="#000" stroke-miterlimit="10" stroke-width="4.83"/><path d="M387.65,555.16s21.55-12.88,64,0S542.9,576.78,559,542.62" transform="translate(-47.59 -43.84)" fill="none" stroke="#000" stroke-miterlimit="10" stroke-width="4.83"/><path d="M574.35,626.88s15,17.12,5.88,43.42" transform="translate(-47.59 -43.84)" fill="none" stroke="#000" stroke-miterlimit="10" stroke-width="4.83"/><path d="M78.68,414h237a34,34,0,0,1,33.09,26L386.5,596.25a28.66,28.66,0,0,1-21.14,34.59,28.23,28.23,0,0,1-6.73.81H122.24a34,34,0,0,1-33.06-25.93L50.84,449.49A28.65,28.65,0,0,1,78.68,414Z" transform="translate(-47.59 -43.84)" fill="#099ee3"/><path d="M87.31,420.71H309.67a32,32,0,0,1,31.05,24.43l35.42,146.59A26.92,26.92,0,0,1,350,624.94H128.18a32,32,0,0,1-31-24.33L61.18,454a26.89,26.89,0,0,1,19.7-32.53A26.31,26.31,0,0,1,87.31,420.71Z" transform="translate(-47.59 -43.84)" fill="#1cb0f6"/><path d="M78.68,414h237a34,34,0,0,1,33.09,26L386.5,596.25a28.66,28.66,0,0,1-21.14,34.59,28.23,28.23,0,0,1-6.73.81H122.24a34,34,0,0,1-33.06-25.93L50.84,449.49A28.65,28.65,0,0,1,78.68,414Z" transform="translate(-47.59 -43.84)" fill="none" stroke="#000" stroke-miterlimit="10" stroke-width="4.83"/><rect x="716.1" y="103.36" width="51.48" height="51.48" fill="none" stroke="#ccdde2" stroke-miterlimit="10" stroke-width="4.83"/><rect x="716.1" y="187.36" width="51.48" height="51.48" rx="16.72" fill="none" stroke="#ccdde2" stroke-miterlimit="10" stroke-width="4.83"/><rect x="716.1" y="267.82" width="51.48" height="51.48" rx="25.74" fill="none" stroke="#ccdde2" stroke-miterlimit="10" stroke-width="4.83"/></svg>