<svg class="force-stroke-txt-color" xmlns="http://www.w3.org/2000/svg" viewBox="0 0 885.75 866.66"><path d="M303.44,262.34s94-156.51,281.9-95.26c187.6,61.26,143.27,293.81,143.15,294.42.82-4.26,33.32-8.32,36.76-8.82,95.87-14.17,167.18,75,174.25,162.88C948.28,724.56,864,801.76,768,835" transform="translate(-57.13 -39.43)" fill="none" stroke="#ccdde2" stroke-miterlimit="10" stroke-width="5.5"></path><path d="M750.67,901.84s2.06-5.71,4.9-15.7q-2.87,8.05-6.38,15.7ZM748,668.14c13.84,34.09,21.69,73.34,22.89,112.4.27-35.56-4.82-74.85-20.91-112a213,213,0,0,0-18.46-33.81.43.43,0,0,0-.15-.2c-22.08-33-55.47-62.3-104.79-83.21l-41.19-12s6.52,14.62-2.57,33.54-31.48,42.33-55.27,36.81-49.94-18.19-46-43.88S487.19,531,487.19,531L346.5,532.34c15.08,20.29,35.95,66.92-6.21,142.29l26.19-1S349,838.1,388.63,901.88a15.38,15.38,0,0,0,.9,1.44l223.75-.93h15.55a4.91,4.91,0,0,0,.15-.51h-54.1A23.26,23.26,0,0,1,558.44,895h0a23.26,23.26,0,0,1-5.75-9.52,22.55,22.55,0,0,1-1-6.92A23.36,23.36,0,0,1,575,855.28H708.81a16.56,16.56,0,0,1,2,.08,1,1,0,0,0,.35,0h.2c-.43.08-.86.12-1.29.23H710a17.88,17.88,0,0,0,1.94-.08,30.58,30.58,0,0,0,3.16-.37c.59-.09,1.17-.2,1.75-.33l.61-.11c.74-.16,1.48-.39,2.22-.59h0c.73-.23,1.43-.5,2.13-.77s1.4-.55,2.1-.9a.48.48,0,0,0,.2-.07c.62-.31,1.24-.63,1.82-.94a31.37,31.37,0,0,0,3.58-2.33l1-.81A27.07,27.07,0,0,0,733,846h0a30.88,30.88,0,0,0,2.1-2.33c.66-.82,1.32-1.63,1.91-2.53a22.63,22.63,0,0,0,1.4-2.29c.27-.47.54-1,.77-1.48.08-.11.16-.19.16-.31h0a12.93,12.93,0,0,0,.54-1.2,30.13,30.13,0,0,0,1.25-3.27c.31-1,.58-2.06.81-3.11.12-.54.23-1.09.31-1.63.16-1,.27-2,.35-3.07,0-.62.08-1.28.08-1.9a32.78,32.78,0,0,0-1.48-9.84,11.13,11.13,0,0,0-.5-1.51,11.66,11.66,0,0,0-.59-1.52,33.71,33.71,0,0,0-7-10.41,12.9,12.9,0,0,0-1.13-1.09h0a26.6,26.6,0,0,0-3.69-2.92c-.43-.27-.85-.58-1.32-.85a31.54,31.54,0,0,0-11.85-4.43h0a29.16,29.16,0,0,0-4.94-.43l-20.83-.12-30.47-.15H658c-.9-.08-1.79-.12-2.73-.12h-4.58c.31-29.5-5-51.81-12.21-68.4C638.46,721.16,673.06,652.79,748,668.14ZM711.49,901.73c-.89.08-1.78.11-2.68.11h4.24C709.71,901.84,710.6,901.81,711.49,901.73Z" transform="translate(-57.13 -39.43)" fill="#353642" class="fill-bg-color-dark"></path><path d="M494,491.85s-3.38,20.52-6.88,39.1c-10,.11-20,.19-29.89.27-5-28.14.43-50.18,6.88-64.87C472.24,484.89,484.52,490.53,494,491.85Z" transform="translate(-57.13 -39.43)" fill="#3fbdf1"></path><path d="M658.36,565.89a265.9,265.9,0,0,0-64.47-24.55l-7.36-1.27s-5.48-12.46-5.51-12.5c-2.57-6.53-6.83-15.2-8.15-22.08a83.5,83.5,0,0,1-1.16-24.69c1.44-12.24,7.14-38.13,17.44-46.29,8.59-6.76,12.13-5.34,17-15.91,3.5-7.54,4.92-20.21-1.88-25.77-7.54-6.1-10.76-3-19.78-2.06C550.21,394.17,530.62,369.5,518,341c-2-4.63-4.08-9.52-7.35-13.46-3.75-4.54-8.94-5.56-13.19-9.23-1.81-1.58-3.05-4.16-2.18-6.4a7.93,7.93,0,0,1,2.18-2.76,70.27,70.27,0,0,1,28.17-15.85,102.94,102.94,0,0,1,51-1.59c17.6,5.83,33.42,16.87,44.07,33.74,14.69,23.31,18.23,47.49,10,71.59-8.43,24.68-17.84,53.67-2,77.42C649.81,506,662.52,528.19,658.36,565.89Z" transform="translate(-57.13 -39.43)" fill="#3fbdf1"></path><path d="M487.16,531c-10,.11-20,.19-29.89.27-75.36.39-147.49-.66-223.09,12.9" transform="translate(-57.13 -39.43)" fill="none" stroke="#000" stroke-miterlimit="10" stroke-width="5.5"></path><path d="M585.34,539.34c2.87.63,5.71,1.29,8.55,2a281.9,281.9,0,0,1,32.64,10,241.62,241.62,0,0,1,31.83,14.54.06.06,0,0,1,.08,0,208.36,208.36,0,0,1,44.31,32.18,173.5,173.5,0,0,1,28.57,36.49.43.43,0,0,1,.15.2A239.86,239.86,0,0,1,748,668.14c13.84,34.09,21.69,73.34,22.89,112.4,1.09,36.89-3.77,73.62-15.27,105.6q-2.86,8.05-6.38,15.7c-.15.39-.35.74-.5,1.13" transform="translate(-57.13 -39.43)" fill="none" stroke="#000" stroke-miterlimit="10" stroke-width="5.5"></path><path d="M628.79,902.47v-.12a4.91,4.91,0,0,0,.15-.51" transform="translate(-57.13 -39.43)" fill="none" stroke="#000" stroke-miterlimit="10" stroke-width="5.5"></path><path d="M602.4,677.59s21.76,10.57,36.06,43.57c7.19,16.59,12.52,38.9,12.21,68.4v.08h0c-.16,18.81-2.64,40.53-8.4,65.56v.14" transform="translate(-57.13 -39.43)" fill="none" stroke="#000" stroke-miterlimit="10" stroke-width="5.5"></path><path d="M191.23,322.64c3.45-13.07,9-26.55,13.16-32.22,6.55-8.82,15.1-17.22,26.09-16.46,7.06.45,14,4.36,14.32,12.1.29,8.39-8.56,17.71-11.4,25.6-2.7,7.61-3.94,16.48-2.51,24.48s8.61,14.26,16.36,16a11.46,11.46,0,0,0,8.7-1.18c7.6-4.8,6-17.59,5.7-25.14-.36-8.47-.35-18,6.87-23.84,5.31-4.25,13.36-1.43,17.28,3.25,6.8,8.1,7.13,20.29,7.47,30.26,1,30-4.32,58.82-21.81,84.11-9,13.05-18.26,24.77-21.9,40.78-11.34,49.77-12.6,84.28-19.11,134.82" transform="translate(-57.13 -39.43)" fill="none" stroke="#000" stroke-miterlimit="10" stroke-width="5.5"></path><path d="M367.78,902.68c-34.77-98.8-18.3-206.75-18.3-206.75l-186.75,5.92a55.63,55.63,0,0,1-57.11-61.53l45.74-166.81,9.9-35.58a51.58,51.58,0,0,0-2.06-33.87l-4.66-11.12s-8.44-17.23,10.5-15.61c10.18.9,20.28,5.23,28.83,10.67,6.71,4.27,16.95,12.54,13.79,21.71-3.75,10.79-18.42,13.49-27,7.42" transform="translate(-57.13 -39.43)" fill="none" stroke="#000" stroke-miterlimit="10" stroke-width="5.5"></path><path d="M158.74,377.24s-16-36,27.89-26.67,54.4,57.26,20.9,51.87" transform="translate(-57.13 -39.43)" fill="none" stroke="#000" stroke-miterlimit="10" stroke-width="5.5"></path><path d="M173.2,348.51s-14-17.05,7-25.2,97.17,30.32,48.3,68.19" transform="translate(-57.13 -39.43)" fill="none" stroke="#000" stroke-miterlimit="10" stroke-width="5.5"></path><path d="M508,491a34.73,34.73,0,0,1-13.91.9c-9.52-1.32-21.8-7-29.89-25.5a74.71,74.71,0,0,1-4.08-11.7c-4.12-15.31-5.92-36.61-3.51-66.31.47-5.71,1.17-11.51,2.14-17.3a155.77,155.77,0,0,1,7.73-29.53.14.14,0,0,1,.08-.12c8.82-23.32,24.33-43,50.41-50.57a102.54,102.54,0,0,1,59.74.86c17.6,5.83,33.42,16.87,44.07,33.74,14.69,23.31,18.23,47.49,10,71.59-8.43,24.68-17.84,53.67-2,77.42,21.06,31.6,33.77,53.79,29.69,91.49h0" transform="translate(-57.13 -39.43)" fill="none" stroke="#000" stroke-miterlimit="10" stroke-width="5.5"></path><path d="M449.27,532.39c-7.66-36.73,2.68-63.51,10.8-77.74" transform="translate(-57.13 -39.43)" fill="none" stroke="#000" stroke-miterlimit="10" stroke-width="5.5"></path><path d="M440.05,364.48s11-21.63,37.59-.74" transform="translate(-57.13 -39.43)" fill="none" stroke="#000" stroke-miterlimit="10" stroke-width="5.5"></path><path d="M500.46,466.24c7.09,4.59,16.69,1.74,21.91-5.33,5.67-7.67,7.08-12,8.31-21.33.08-.67,0,0,.06-.67-16.94,8.37-24.41,9.65-39.19,11.07a27.1,27.1,0,0,0,4.81,12.33A15.49,15.49,0,0,0,500.46,466.24Z" transform="translate(-57.13 -39.43)" fill="none" stroke="#000" stroke-linecap="round" stroke-linejoin="round" stroke-width="5.5"></path><line x1="521.33" y1="481.02" x2="521.29" y2="480.98" fill="none" stroke="#000" stroke-miterlimit="10" stroke-width="5.5"></line><path d="M505.52,362s4-10.07,24.4-6.7,22.48,14.29,22.48,14.29" transform="translate(-57.13 -39.43)" fill="none" stroke="#000" stroke-miterlimit="10" stroke-width="5.5"></path><path d="M468.21,388.56s9-4.55,16.05,0" transform="translate(-57.13 -39.43)" fill="none" stroke="#000" stroke-miterlimit="10" stroke-width="5.5"></path><path d="M516.71,392.75s9-4.55,16,0" transform="translate(-57.13 -39.43)" fill="none" stroke="#000" stroke-miterlimit="10" stroke-width="5.5"></path><path d="M494,491.85s-3.38,20.52-6.88,39.1c-.51,2.64-1,5.24-1.44,7.81-2.29,12.51-4.12,23.63-4.2,27-.58,28,25.89,44.15,51.46,43.88,35.88-.39,56.86-33.77,53.48-67.2-2.21-6.1-4.47-12.2-6.68-18.3-2.84-7.82-6.53-15.43-8.13-23.67a80.34,80.34,0,0,1-.46-24.57c1.44-12.2,3.81-30.39,14.11-38.55,8.59-6.76,17.56-11.2,22.46-21.77,3.5-7.54,3.34-17.25-3.46-22.81-7.54-6.1-19.47-5.36-28.49-4.47-58.18,5.95-67.86-52.94-83.6-61.21-12.9-6.81-22.58,8.47-25.61,14.14l-.12.24a.23.23,0,0,1-.07.15,17.2,17.2,0,0,0-.82,1.67" transform="translate(-57.13 -39.43)" fill="none" stroke="#000" stroke-miterlimit="10" stroke-width="5.5"></path><path d="M492.51,395.34s-6.08,19.9-5.61,22.88,7.56.9,7.56.9" transform="translate(-57.13 -39.43)" fill="none" stroke="#000" stroke-miterlimit="10" stroke-width="5.5"></path><ellipse cx="522.91" cy="399.06" rx="23.83" ry="24.41" transform="translate(-186.23 446.64) rotate(-44.95)" fill="none" stroke="#000" stroke-miterlimit="10" stroke-width="5.5"></ellipse><ellipse cx="462.12" cy="391.67" rx="23.83" ry="24.41" transform="translate(-198.77 401.54) rotate(-44.95)" fill="none" stroke="#000" stroke-miterlimit="10" stroke-width="5.5"></ellipse><path d="M461.59,373.15a19,19,0,0,1,19.09,18.91c0,.63,0,1.27-.09,1.9a17.89,17.89,0,0,1-17.88,16.2,19,19,0,0,1-19.09-18.92q0-.94.09-1.89a17.89,17.89,0,0,1,17.88-16.2m0-2.76A20.62,20.62,0,0,0,441,389.08a21.87,21.87,0,0,0,19.09,23.68,25,25,0,0,0,2.6.16,20.64,20.64,0,0,0,20.62-18.69,21.85,21.85,0,0,0-19.09-23.68,20.51,20.51,0,0,0-2.6-.16Z" transform="translate(-57.13 -39.43)" fill="#fff"></path><line x1="441.76" y1="356.7" x2="429" y2="355.15" fill="none" stroke="#000" stroke-miterlimit="10" stroke-width="5.5"></line><ellipse cx="522.91" cy="399.06" rx="21.13" ry="21.64" transform="translate(-186.23 446.64) rotate(-44.95)" fill="#3fbdf1"></ellipse><ellipse cx="462.12" cy="391.67" rx="21.14" ry="21.65" transform="translate(-198.77 401.54) rotate(-44.95)" fill="#3fbdf1"></ellipse><path d="M258,95.65c-29,1.48-53,24.72-55.31,53.64a58.27,58.27,0,0,0,15.24,44.5,57.55,57.55,0,0,0,14,11.23,25,25,0,0,1,3.85,2.72,56.2,56.2,0,0,0,50.49.08A18.35,18.35,0,0,1,290,205.1a60.08,60.08,0,0,0,14.57-11.7A2.86,2.86,0,0,1,305,193,58.6,58.6,0,0,0,258,95.65Zm36.3,91.61a.89.89,0,0,0-.27.31,46.67,46.67,0,0,1-11.27,9,13.55,13.55,0,0,0-2.88,2.1,43.53,43.53,0,0,1-38.94,0,21,21,0,0,0-3-2.14,45.15,45.15,0,1,1,61.65-16.63,45.81,45.81,0,0,1-5.3,7.38Z" transform="translate(-57.13 -39.43)" fill="#3fbdf1"></path><path d="M286.24,207.83A22.17,22.17,0,0,0,279,224.34V227c0,9.36-6.78,17.75-16,18.69a17.94,17.94,0,0,1-19.68-16,17.29,17.29,0,0,1-.09-1.76v-3.59a22.38,22.38,0,0,0-7.38-16.58,56.32,56.32,0,0,0,50.47.07Z" transform="translate(-57.13 -39.43)" fill="#353642"></path><path d="M286.24,207.83A22.17,22.17,0,0,0,279,224.34V227c0,9.36-6.78,17.75-16,18.69a17.94,17.94,0,0,1-19.68-16,17.29,17.29,0,0,1-.09-1.76v-3.59a22.38,22.38,0,0,0-7.38-16.58,56.32,56.32,0,0,0,50.47.07Z" transform="translate(-57.13 -39.43)" fill="none" stroke="#000" stroke-miterlimit="10" stroke-width="5.5"></path><path d="M319.63,154.16A58.33,58.33,0,0,1,304.93,193a3.29,3.29,0,0,0-.33.41A59.85,59.85,0,0,1,290,205.11a19.37,19.37,0,0,0-3.76,2.72,56.32,56.32,0,0,1-50.47-.07,24.83,24.83,0,0,0-3.86-2.75,58.65,58.65,0,1,1,87.72-50.85Z" transform="translate(-57.13 -39.43)" fill="none" stroke="#000" stroke-miterlimit="10" stroke-width="5.5"></path><path d="M244.5,213.77l-13.42-44.48-3.36-12.6a1.72,1.72,0,0,1,1.72-1.72,1.69,1.69,0,0,1,1.49.86c3,5.3,7.74,11.95,12.46,11.78,7.83-.28,1.4-24.05-5-21.56s5.87,18.2,18.51,20.16,9.18-19.29,0-20.13-2.85,17.06,13.65,20.13,13.42-15.1,8.95-18.73-3.08,17.33,7.28,20.69c3.28,1.07,5.89-1.22,7.17-4.07.74-1.66.36-10.06-1.16-7.47-3.1,5.31-3.71,11.94-5.23,17.8-3.23,12.4-8.17,24.27-11,36.78" transform="translate(-57.13 -39.43)" fill="none" stroke="#000" stroke-miterlimit="10" stroke-width="5.5"></path><path d="M165.45,903.34c7.08-3.32,660,0,660,0" transform="translate(-57.13 -39.43)" fill="none" stroke="#000" stroke-miterlimit="10" stroke-width="5.5"></path><line x1="203.88" y1="35.29" x2="203.3" y2="0.06" fill="none" stroke="#000" stroke-miterlimit="10" stroke-width="7.34"></line><line x1="136.69" y1="68.06" x2="112.3" y2="42.63" fill="none" stroke="#000" stroke-miterlimit="10" stroke-width="7.34"></line><line x1="271.32" y1="69.64" x2="296.25" y2="44.74" fill="none" stroke="#000" stroke-miterlimit="10" stroke-width="7.34"></line><path d="M711.34,855.28l.85.08c-.46.08-1,.16-1.47.27H710l-67.71-.35h-7.65l-113.76-.58h-1.29a.81.81,0,0,1-.31,0h-.07a15.29,15.29,0,0,1-2.14-.15,32.53,32.53,0,0,0,16.63-6.91c.75-.63,1.52-1.23,2.22-1.91l.08-.08c.16-.14.32-.28.46-.43a33,33,0,0,0,9.72-21.49V821.9a33,33,0,0,0-26.39-32.18.06.06,0,0,0-.08,0c-.74-.19-1.59-.31-2.37-.43l1.67-.11a5.61,5.61,0,0,1,.82,0h1.32l96.11.5,17.69.08,15.7.08h8.51a32.92,32.92,0,0,1,29.62,32.68,31.28,31.28,0,0,1-.35,4.63A32.93,32.93,0,0,1,657,855.21h56.1C712.27,855.24,711.73,855.24,711.34,855.28Z" transform="translate(-57.13 -39.43)" fill="#fff"></path><path d="M558.43,895a23.25,23.25,0,0,0,16.48,6.84H519.13c-10.68,0-16.48-2.6-20.71-6.84a23.38,23.38,0,0,1-6.84-16.48c0-12.78,10.49-23.28,27.55-23.28h55.78A23.28,23.28,0,0,0,558.43,895Z" transform="translate(-57.13 -39.43)" fill="#d7e8f0"></path><path d="M742.82,823a15.1,15.1,0,0,1-.08,1.9c-.08,1.05-.19,2.06-.35,3.07-.08.54-.19,1.09-.31,1.63-.23,1-.5,2.1-.81,3.11A30.13,30.13,0,0,1,740,836a12.93,12.93,0,0,1-.54,1.2h0c0,.12-.08.2-.16.31-.23.51-.5,1-.77,1.48-.43.78-.9,1.55-1.4,2.29-.59.9-1.25,1.71-1.91,2.53a30.88,30.88,0,0,1-2.1,2.33h0a27.07,27.07,0,0,1-2.52,2.26l-1,.81a31.37,31.37,0,0,1-3.58,2.33c-.58.31-1.2.63-1.82.94a.48.48,0,0,1-.2.07c-.7.35-1.4.63-2.1.9s-1.4.54-2.13.77h0c-.74.2-1.48.43-2.22.59a36.74,36.74,0,0,1-5.52.81h-1.79c.43-.11.86-.15,1.29-.23a.19.19,0,0,1,.15,0,3.68,3.68,0,0,1-.58-.08,1.27,1.27,0,0,1,.39,0H657a32.8,32.8,0,0,0,19.19-7.51,29.55,29.55,0,0,0,2.34-2.13,24.29,24.29,0,0,0,1.75-1.91,14.67,14.67,0,0,0,1.16-1.47c.23-.28.43-.55.62-.82a14.23,14.23,0,0,0,1-1.56,16.36,16.36,0,0,0,1.21-2,20.56,20.56,0,0,0,1-2.06c.15-.31.27-.66.47-1,.27-.7.5-1.4.73-2.1.32-1,.63-2.06.86-3.1a14.63,14.63,0,0,0,.31-1.71,2.17,2.17,0,0,0,.08-.43,1.47,1.47,0,0,0,.08-.35A10.93,10.93,0,0,1,688,826v-.23a22.43,22.43,0,0,0,.2-3.27,9.49,9.49,0,0,0-.08-1.51v-.35a9.14,9.14,0,0,0-.12-1.48,31,31,0,0,0-1.83-7.89,25.6,25.6,0,0,0-2-4.39,26.12,26.12,0,0,0-2.56-4,10.55,10.55,0,0,0-.82-1c-.12-.12-.23-.28-.39-.43a16.31,16.31,0,0,0-1.71-1.91c-.46-.46-1-.93-1.47-1.43a14.14,14.14,0,0,0-1.91-1.56c-.66-.47-1.09-.81-1.67-1.2a19.45,19.45,0,0,0-2.72-1.67,18.93,18.93,0,0,0-2.76-1.33,31.05,31.05,0,0,0-3.38-1.24,5.66,5.66,0,0,0-1.21-.31,24.26,24.26,0,0,0-3.26-.7c-.55-.12-1.09-.16-1.67-.23h-.08a.45.45,0,0,1-.23,0h.58l30.47.15,20.83.12a29.16,29.16,0,0,1,4.94.43h0A31.63,31.63,0,0,1,727,795c.47.27.89.58,1.32.85a26.6,26.6,0,0,1,3.69,2.92h0a12.9,12.9,0,0,1,1.13,1.09,33.71,33.71,0,0,1,7,10.41,11.66,11.66,0,0,1,.59,1.52,11.13,11.13,0,0,1,.5,1.51A32.85,32.85,0,0,1,742.82,823Z" transform="translate(-57.13 -39.43)" fill="#099ee3"></path><path d="M742.82,823a15.1,15.1,0,0,1-.08,1.9c-.08,1.05-.19,2.06-.35,3.07-.08.54-.19,1.09-.31,1.63-.23,1-.5,2.1-.81,3.11A30.13,30.13,0,0,1,740,836a7,7,0,0,1-.58,1.2c0,.12-.08.2-.16.31-.23.51-.5,1-.77,1.48-.43.78-.9,1.55-1.4,2.29-.59.9-1.25,1.71-1.91,2.53a31.41,31.41,0,0,1-2.14,2.33,27.07,27.07,0,0,1-2.52,2.26l-1,.81a31.37,31.37,0,0,1-3.58,2.33c-.58.31-1.2.63-1.82.94a.48.48,0,0,1-.2.07c-.7.35-1.4.63-2.1.9s-1.4.54-2.13.77h0c-.74.2-1.48.43-2.22.59l-.61.11c-.58.13-1.16.24-1.75.33a30.58,30.58,0,0,1-3.16.37,17.88,17.88,0,0,1-1.94.08h-.16l-67.6-.33-15.93-.08-106.18-.54c-.39,0-.78,0-1.17-.08-.89,0-1.75-.08-2.64-.15a33.1,33.1,0,0,0,29.11-30.82V822A33,33,0,0,0,519,789.62c-.78-.16-1.56-.27-2.37-.39a22.59,22.59,0,0,1,2.33-.15,5.61,5.61,0,0,1,.82,0h.66l106.18.54,24,.12h8.51l51,.27a32.2,32.2,0,0,1,5,.39h0a32.93,32.93,0,0,1,11.93,4.43c.47.27.89.58,1.32.85a32.41,32.41,0,0,1,3.69,2.92h0c.39.35.74.7,1.13,1.09a33.71,33.71,0,0,1,7,10.41l.59,1.52a12.72,12.72,0,0,1,.5,1.51A32.93,32.93,0,0,1,742.82,823Z" transform="translate(-57.13 -39.43)" fill="none" stroke="#000" stroke-linecap="square" stroke-linejoin="round" stroke-width="5.5"></path><path d="M688.1,822.4a29.83,29.83,0,0,1-.16,3.27v.23c-.08.51-.15,1-.23,1.48a2.17,2.17,0,0,1-.08.43,14.63,14.63,0,0,1-.31,1.71c-.23,1-.54,2.09-.86,3.1-.23.7-.46,1.4-.73,2.1-.2.35-.32.7-.47,1a20.56,20.56,0,0,1-1,2.06,16.36,16.36,0,0,1-1.21,2,14.23,14.23,0,0,1-1,1.56c-.19.27-.39.54-.62.82a14.67,14.67,0,0,1-1.16,1.47,24.29,24.29,0,0,1-1.75,1.91h0c-.74.73-1.53,1.43-2.34,2.09A32.83,32.83,0,0,1,657,855.21H520.31c-1.24,0-2.52-.07-3.81-.19.84-.1,1.67-.25,2.49-.43a.34.34,0,0,0,.2,0h.07a33.16,33.16,0,0,0,16.64-9l.08-.08a32.86,32.86,0,0,0,9.48-21.88v-1.29a33,33,0,0,0-29-32.5c.86-.11,1.71-.15,2.57-.19a1.83,1.83,0,0,1,.66,0,.06.06,0,0,1,.08,0,2.09,2.09,0,0,1,.5,0h135a20.48,20.48,0,0,1,2.73.12h.31a.45.45,0,0,0,.23,0h.16l1.59.23a24.26,24.26,0,0,1,3.26.7c.39.08.82.19,1.21.31a31.05,31.05,0,0,1,3.38,1.24c.93.39,1.87.86,2.76,1.33a24.48,24.48,0,0,1,2.72,1.67c.58.39,1.13.77,1.67,1.2s1.28,1,1.91,1.56,1,1,1.47,1.43c.59.63,1.17,1.25,1.71,1.91.16.15.27.31.39.43l.82,1.05a36.2,36.2,0,0,1,2.56,4,38.61,38.61,0,0,1,2,4.39,34.4,34.4,0,0,1,1.83,7.89c0,.51.08,1,.12,1.48v.35C688.1,821.39,688.1,821.9,688.1,822.4Z" transform="translate(-57.13 -39.43)" fill="none" stroke="#000" stroke-linecap="square" stroke-linejoin="round" stroke-width="5.5"></path><path d="M713.05,901.84H519.11A38.56,38.56,0,0,1,506.36,900a22.36,22.36,0,0,1-2.33-1h0c-.74-.39-1.4-.78-2.06-1.17a16.37,16.37,0,0,1-1.83-1.36h0c-.58-.51-1.12-1-1.63-1.52h0a23.15,23.15,0,0,1-5.75-9.52,22.6,22.6,0,0,1-1.05-6.92,20.58,20.58,0,0,1,.16-2.72,19.69,19.69,0,0,1,.81-3.73,18.81,18.81,0,0,1,2.49-5.4,16.11,16.11,0,0,1,2.25-3A22.19,22.19,0,0,1,499.1,862c4.74-4.23,11.62-6.84,20.13-6.84H711.34a1.27,1.27,0,0,0-.39,0h-.12a.06.06,0,0,0,.08,0h.47c-.43.08-.86.12-1.29.23h-.25a23.33,23.33,0,0,0,1.71,46.06C710.6,901.81,709.71,901.84,713.05,901.84Z" transform="translate(-57.13 -39.43)" fill="none" stroke="#000" stroke-linecap="square" stroke-linejoin="round" stroke-width="5.5"></path><path d="M711.49,901.73c-.89.08-1.78.11-2.68.11H574.88A23.26,23.26,0,0,1,558.44,895h0a23.15,23.15,0,0,1-5.75-9.52,22.55,22.55,0,0,1-1-6.92A23.36,23.36,0,0,1,575,855.24H708.81a16.56,16.56,0,0,1,2,.08,1,1,0,0,0,.35,0h.2c-.43.08-.86.12-1.29.23h-.23a23.33,23.33,0,0,0,1.71,46.06Z" transform="translate(-57.13 -39.43)" fill="none" stroke="#000" stroke-linecap="square" stroke-linejoin="round" stroke-width="5.5"></path><path d="M551.6,878.56a23.28,23.28,0,0,0,23.28,23.28H519.11c-10.65,0-16.48-2.6-20.72-6.84a23.21,23.21,0,0,1-6.8-16.44c0-12.82,10.46-23.32,27.52-23.32h55.77A23.36,23.36,0,0,0,551.6,878.56Z" transform="translate(-57.13 -39.43)" fill="none" stroke="#000" stroke-linecap="square" stroke-linejoin="round" stroke-width="5.5"></path><path d="M713.05,901.84h-4.24a21.76,21.76,0,0,0,2.68-.11C710.6,901.81,709.71,901.84,713.05,901.84Z" transform="translate(-57.13 -39.43)" fill="none" stroke="#000" stroke-linecap="square" stroke-linejoin="round" stroke-width="5.5"></path><path d="M711.18,855.34c-.77,0-1.59-.12-2.37-.12h4.24C710.09,855.24,710.44,855.34,711.18,855.34Z" transform="translate(-57.13 -39.43)" fill="none" stroke="#000" stroke-linecap="square" stroke-linejoin="round" stroke-width="5.5"></path><path d="M130,814.12,60.58,636.28a23.31,23.31,0,0,1,22.64-29H359a27.56,27.56,0,0,1,26.81,21.12l76,177.82A23.35,23.35,0,0,1,439.11,835H156.73A27.57,27.57,0,0,1,130,814.12Z" transform="translate(-57.13 -39.43)" fill="#fff" opacity="0.54" style="isolation: isolate;"></path><path d="M130,814.12,60.58,636.28a23.31,23.31,0,0,1,22.64-29H359a27.56,27.56,0,0,1,26.81,21.12l76,177.82A23.35,23.35,0,0,1,439.11,835H156.73A27.57,27.57,0,0,1,130,814.12Z" transform="translate(-57.13 -39.43)" fill="#099ee3"></path><path d="M130,814.12,60.58,636.28a23.31,23.31,0,0,1,22.64-29H359a27.56,27.56,0,0,1,26.81,21.12l76,177.82A23.35,23.35,0,0,1,439.11,835H156.73A27.57,27.57,0,0,1,130,814.12Z" transform="translate(-57.13 -39.43)" fill="none" stroke="#000" stroke-linecap="square" stroke-linejoin="round" stroke-width="5.5"></path><path d="M140.14,806.92l-64-164.07A21.53,21.53,0,0,1,91.8,616.73a21.22,21.22,0,0,1,5.2-.64H351.38a25.44,25.44,0,0,1,24.73,19.49l70.11,164a21.55,21.55,0,0,1-20.94,26.57H164.82A25.45,25.45,0,0,1,140.14,806.92Z" transform="translate(-57.13 -39.43)" fill="#1cb0f6"></path><path d="M153.36,684.79" transform="translate(-57.13 -39.43)" fill="#d7e8f0"></path><path d="M155.52,695.29" transform="translate(-57.13 -39.43)" fill="#d7e8f0"></path><path d="M189.27,695.29" transform="translate(-57.13 -39.43)" fill="#d7e8f0"></path><path d="M192.72,690" transform="translate(-57.13 -39.43)" fill="#d7e8f0"></path></svg>