<svg width="35" height="50" viewBox="0 0 35 50" fill="none" xmlns="http://www.w3.org/2000/svg">
<path d="M8.50778 44.2308V49.0385C8.50778 49.5692 8.93166 50 9.45394 50H13.2385C13.4895 50 13.7301 49.8987 13.9076 49.7184C14.085 49.538 14.1847 49.2935 14.1847 49.0385V44.2308H16.077V49.0385C16.077 49.5692 16.5009 50 17.0231 50H20.8077C21.0587 50 21.2993 49.8987 21.4768 49.7184C21.6542 49.538 21.7539 49.2935 21.7539 49.0385V44.2308H22.0718C29.6107 44.2308 35 40.2577 35 33.3846C35 27.6077 31.1889 24.45 26.7269 24V23.6615C30.3979 22.7308 33.0963 19.9154 33.0963 15.2385C33.0963 9.34615 28.7441 5.76923 22.1021 5.76923H21.7539V0.961538C21.7539 0.706523 21.6542 0.461952 21.4768 0.281628C21.2993 0.101305 21.0587 0 20.8077 0H17.0231C16.7722 0 16.5315 0.101305 16.3541 0.281628C16.1767 0.461952 16.077 0.706523 16.077 0.961538V5.76923H13.9084V0.961538C13.9084 0.706523 13.8087 0.461952 13.6313 0.281628C13.4539 0.101305 13.2132 0 12.9623 0H9.45394C9.203 0 8.96234 0.101305 8.78491 0.281628C8.60747 0.461952 8.50778 0.706523 8.50778 0.961538V5.76923L0.94615 5.81154C0.695216 5.81154 0.454558 5.91284 0.27712 6.09317C0.0996827 6.27349 0 6.51806 0 6.77308V10.5769C0 11.1038 0.416306 11.5385 0.938581 11.5385L3.79596 11.5192C4.54548 11.5243 5.26259 11.8305 5.79082 12.3709C6.31905 12.9113 6.6155 13.6421 6.61548 14.4038V35.5769C6.61548 36.342 6.31643 37.0757 5.78412 37.6167C5.25181 38.1576 4.52984 38.4615 3.77703 38.4615L0.94615 38.5038C0.695216 38.5038 0.454558 38.6052 0.27712 38.7855C0.0996827 38.9658 0 39.2104 0 39.4654V43.3115C0 43.8423 0.423875 44.2731 0.94615 44.2731L8.50778 44.2308ZM13.9084 11.4885H20.4141C23.843 11.4885 25.8564 13.4038 25.8564 16.5346C25.8564 19.8846 23.6803 21.7731 18.7527 21.7731H13.9084V11.4885ZM13.9084 27.0692H20.8721C25.1752 27.0692 27.5178 29.3 27.5178 32.9308C27.5178 36.5962 25.1487 38.5077 19.3507 38.5077H13.9084V27.0692Z"/>
</svg>
