<svg viewBox="0 0 12 7" xmlns="http://www.w3.org/2000/svg">
<path d="M0.516175 6.65188C0.952175 7.09788 1.55917 7.13288 2.09217 6.65188L6.00017 2.90488L9.90817 6.65188C10.4412 7.13288 11.0492 7.09788 11.4822 6.65188C11.9182 6.20688 11.8902 5.45488 11.4822 5.03688C11.0762 4.61888 6.78717 0.534885 6.78717 0.534885C6.68504 0.429032 6.56263 0.344842 6.42724 0.28734C6.29185 0.229837 6.14627 0.200202 5.99917 0.200202C5.85208 0.200202 5.7065 0.229837 5.57111 0.28734C5.43572 0.344842 5.31331 0.429032 5.21118 0.534885C5.21118 0.534885 0.924175 4.61888 0.516175 5.03688C0.107175 5.45488 0.0801746 6.20688 0.516175 6.65188Z"/>
</svg>
