<svg width="20" height="21" viewBox="0 0 20 21" xmlns="http://www.w3.org/2000/svg">
<path d="M12.2222 2.97222C11.9275 2.97222 11.6449 2.85516 11.4365 2.64679C11.2282 2.43841 11.1111 2.1558 11.1111 1.86111C11.1111 1.56643 11.2282 1.28381 11.4365 1.07544C11.6449 0.867063 11.9275 0.75 12.2222 0.75H18.8889C19.1836 0.75 19.4662 0.867063 19.6746 1.07544C19.8829 1.28381 20 1.56643 20 1.86111V8.52778C20 8.82246 19.8829 9.10508 19.6746 9.31345C19.4662 9.52183 19.1836 9.63889 18.8889 9.63889C18.5942 9.63889 18.3116 9.52183 18.1032 9.31345C17.8948 9.10508 17.7778 8.82246 17.7778 8.52778V4.54333L7.45222 14.8689C7.24266 15.0713 6.962 15.1833 6.67067 15.1807C6.37934 15.1782 6.10066 15.0614 5.89465 14.8554C5.68864 14.6493 5.57178 14.3707 5.56925 14.0793C5.56672 13.788 5.67871 13.5073 5.88111 13.2978L16.2067 2.97222H12.2222ZM0 5.19444C0 4.60507 0.234126 4.03984 0.650874 3.6231C1.06762 3.20635 1.63285 2.97222 2.22222 2.97222H7.77778C8.07246 2.97222 8.35508 3.08929 8.56345 3.29766C8.77183 3.50603 8.88889 3.78865 8.88889 4.08333C8.88889 4.37802 8.77183 4.66063 8.56345 4.86901C8.35508 5.07738 8.07246 5.19444 7.77778 5.19444H2.22222V18.5278H15.5556V12.9722C15.5556 12.6775 15.6726 12.3949 15.881 12.1865C16.0894 11.9782 16.372 11.8611 16.6667 11.8611C16.9614 11.8611 17.244 11.9782 17.4523 12.1865C17.6607 12.3949 17.7778 12.6775 17.7778 12.9722V18.5278C17.7778 19.1171 17.5437 19.6824 17.1269 20.0991C16.7102 20.5159 16.1449 20.75 15.5556 20.75H2.22222C1.63285 20.75 1.06762 20.5159 0.650874 20.0991C0.234126 19.6824 0 19.1171 0 18.5278V5.19444Z"/>
</svg>
