<svg width="23" height="23" viewBox="0 0 23 23" xmlns="http://www.w3.org/2000/svg">
<path d="M22.4475 15.4063C22.7025 14.7988 21.9737 14.2813 21.3625 14.5513C20.1407 15.0876 18.8206 15.3635 17.4862 15.3613C12.255 15.3613 8.015 11.2063 8.015 6.08007C8.01308 4.34926 8.50481 2.65378 9.4325 1.19257C9.7875 0.632574 9.36125 -0.142426 8.71125 0.0225739C3.7 1.30132 0 5.76632 0 11.0776C0 17.3863 5.21875 22.5001 11.6575 22.5001C16.5325 22.5001 20.7075 19.5688 22.4475 15.4063Z"/>
<path d="M15.7638 0.128824C15.1012 -0.313676 14.3112 0.476324 14.7525 1.13882L15.54 2.32007C15.8595 2.79903 16.0299 3.36186 16.0299 3.93757C16.0299 4.51329 15.8595 5.07612 15.54 5.55507L14.7525 6.73632C14.3112 7.39882 15.1025 8.18882 15.765 7.74632L16.945 6.95882C17.424 6.63936 17.9868 6.46888 18.5625 6.46888C19.1382 6.46888 19.701 6.63936 20.18 6.95882L21.3613 7.74632C22.0238 8.18882 22.8137 7.39882 22.3713 6.73632L21.5838 5.55507C21.2643 5.07612 21.0938 4.51329 21.0938 3.93757C21.0938 3.36186 21.2643 2.79903 21.5838 2.32007L22.3713 1.13882C22.8137 0.476324 22.0238 -0.313676 21.36 0.128824L20.18 0.916324C19.701 1.23578 19.1382 1.40626 18.5625 1.40626C17.9868 1.40626 17.424 1.23578 16.945 0.916324L15.7638 0.128824Z"/>
</svg>
