<svg width="286" height="247" viewBox="0 0 286 247" fill="none" xmlns="http://www.w3.org/2000/svg">
<path d="M72.1149 122.304C72.7844 122.345 73.4162 122.628 73.8938 123.099C74.6346 123.868 90.1959 140.224 90.4161 140.659C90.6363 141.094 85.1994 141.097 84.6703 141.097C84.1412 141.097 72.7213 141.245 72.4181 140.659C72.1149 140.073 72.1149 122.304 72.1149 122.304Z" fill="#3FBDF1"/>
<path d="M61.5958 49.3225C61.5958 49.3225 61.8818 47.7209 64.7418 48.3301C67.6018 48.9393 78.384 51.7335 78.7101 51.7993C79.0361 51.8651 82.8943 51.4761 80.6406 53.9615L53.2675 84.1488C53.2675 84.1488 45.8029 90.4207 50.4247 98.0398L60 108.576L66.1861 115.034C66.1861 115.034 67.6676 114.216 67.3959 118.695C67.1242 123.173 67.6333 138.886 67.6333 138.886C67.6333 138.886 67.9193 140.262 66.1776 138.826C64.4358 137.391 41.0096 112.102 41.0096 112.102L29.9871 99.9503C29.9871 99.9503 26.5265 96.4153 28.0824 90.1719C29.6382 83.9285 37.2601 77.116 37.2601 77.116L61.5958 49.3225Z" fill="#3FBDF1"/>
<path d="M124.07 124.555C119.425 127.55 114.973 130.833 110.739 134.385C103.469 126.743 89.9213 112.114 89.9213 112.114L78.9046 99.9617C78.9046 99.9617 75.4354 96.4239 76.9969 90.1805C77.0255 90.0718 77.0513 89.9603 77.0884 89.843C83.0944 97.7023 91.3884 109.817 109.261 108.948L124.07 124.555Z" fill="#3FBDF1"/>
<path d="M129.558 53.9499C128.042 55.6287 116.09 68.8048 108.494 77.1817L102.202 84.1315C101.15 85.0832 100.244 86.1847 99.5137 87.4005C93.8337 85.2669 88.1337 83.1705 82.491 80.9569C83.6482 79.606 84.884 78.3244 86.1918 77.1188L108.726 51.3788C108.972 51.3502 109.206 51.333 109.452 51.3044C112.821 50.9724 116.168 50.4549 119.479 49.7543C120.443 49.5455 121.413 49.3282 122.374 49.0994C125.806 50.9698 121.058 54.7993 127.639 51.7878C127.748 51.8049 128.211 51.7878 128.746 51.8135C129.807 51.9107 131.068 52.2825 129.558 53.9499Z" fill="#3FBDF1"/>
<path d="M103.641 141.091H91.1368H73.4677H72.1149" stroke="#CCDDE2" stroke-width="1.36136" stroke-miterlimit="10"/>
<path d="M49.2091 48.0354L23.8638 76.9929L17.5003 84.2659C15.3964 86.67 14.2561 89.7674 14.2989 92.9618C14.3417 96.1562 15.5645 99.2219 17.732 101.569L50.4618 136.944C51.6738 138.251 53.1423 139.294 54.7756 140.007C56.4089 140.721 58.1718 141.09 59.9542 141.091H67.3902" stroke="#CCDDE2" stroke-width="1.36136" stroke-miterlimit="10"/>
<path d="M62.7941 47.9441L31.0138 84.2661C28.9099 86.6711 27.7701 89.7694 27.814 92.9645C27.8578 96.1596 29.0821 99.2256 31.2512 101.572L63.9753 136.944C64.9644 138.007 66.1245 138.896 67.4073 139.576" stroke="#CCDDE2" stroke-width="1.36136" stroke-miterlimit="10"/>
<path d="M67.3959 116.298L52.2036 100.454C50.265 98.4721 49.1616 95.8216 49.1211 93.0497C49.0807 90.2778 50.1063 87.5963 51.9862 85.5589L82.0162 52.4458" stroke="#CCDDE2" stroke-width="1.36136" stroke-miterlimit="10"/>
<path d="M72.1149 141.017C72.5643 141.065 73.0158 141.09 73.4677 141.091H91.1368L72.1149 121.234" stroke="#CCDDE2" stroke-width="1.36136" stroke-miterlimit="10"/>
<path d="M109.086 108.91L109.123 108.956L124.07 124.555" stroke="#CCDDE2" stroke-width="1.36136" stroke-miterlimit="10"/>
<path d="M109.432 51.3188L82.6254 81.0314" stroke="#CCDDE2" stroke-width="1.36136" stroke-miterlimit="10"/>
<path d="M76.9712 89.6799C76.4557 91.7584 76.4652 93.9325 76.9989 96.0064C77.5326 98.0803 78.5737 99.9889 80.0285 101.56L110.539 134.548" stroke="#CCDDE2" stroke-width="1.36136" stroke-miterlimit="10"/>
<path d="M99.2763 87.6004C99.3221 87.5289 99.3592 87.4574 99.4136 87.3831C99.7962 86.727 100.25 86.1151 100.766 85.5584L108.46 77.0642L108.534 76.9927" stroke="#CCDDE2" stroke-width="1.36136" stroke-miterlimit="10"/>
<path d="M23.8638 76.993C23.8638 76.993 26.4578 52.1825 49.2091 48.0355C55.5984 46.8743 62.1792 47.5636 68.4312 49.1509C73.5592 50.4493 78.63 52.2082 83.9496 52.5257C89.6124 52.8632 95.3552 52.3169 101.009 51.9823C103.561 51.8279 106.137 51.6477 108.706 51.3931C108.952 51.3645 109.186 51.3474 109.432 51.3188C112.8 50.9867 116.148 50.4692 119.459 49.7687C120.423 49.5599 121.393 49.3425 122.354 49.1137C122.837 49.0136 123.317 48.8964 123.798 48.7877" stroke="#CCDDE2" stroke-width="1.36136" stroke-miterlimit="10"/>
<path d="M204.993 213.902C217.932 202.67 225.828 183.997 228.643 167.146" stroke="#CCDDE2" stroke-width="1.36136" stroke-miterlimit="10"/>
<path d="M137.446 44.758C142.657 43.328 149.707 40.937 159.128 36.9816C187.024 25.2556 196.951 36.4897 196.951 36.4897C198.583 37.9364 199.97 39.6383 201.058 41.529C201.192 41.755 201.321 41.9895 201.438 42.2183C210.931 60.0132 194.002 79.3697 200.929 97.4163C204.859 107.689 214.614 114.259 219.488 124.043C222.08 129.297 223.951 134.876 225.051 140.631" stroke="#CCDDE2" stroke-width="1.36136" stroke-miterlimit="10"/>
<path d="M123.418 44.1602C123.389 44.1617 123.361 44.1675 123.335 44.1773" stroke="#CCDDE2" stroke-width="1.36136" stroke-miterlimit="10"/>
<path d="M185.225 108.994C182.728 143.285 148.019 143.314 147.436 142.933C147.436 142.933 149.684 145.29 136.01 134.396C122.337 123.502 116.722 107.329 116.722 107.329C110.968 110.006 100.386 108.625 100.386 108.625C93.5506 106.565 87.8278 102.247 83.4548 97.8567C89.4866 90.4522 88.3168 84.7894 87.8621 83.3536C93.5993 85.6931 100.16 88.1699 102.84 88.4587C108.037 89.0164 107.567 81.6376 107.567 81.6376C112.224 53.2807 128.671 51.8422 128.671 51.8422C146.489 49.783 156.817 57.4649 165.417 76.7242C174.017 95.9834 185.225 108.994 185.225 108.994Z" fill="#2E2E2E"/>
<path d="M151.983 218.4H120.692C120.079 218.082 119.591 217.567 119.307 216.938C119.022 216.309 118.957 215.603 119.122 214.933C119.287 214.263 119.672 213.667 120.216 213.243C120.761 212.818 121.432 212.588 122.122 212.591H129.715C129.715 212.591 129.412 212.371 128.857 211.945H146.658C149.292 215.185 151.251 217.525 151.983 218.4Z" fill="#3FBDF1"/>
<path d="M265.165 170.032L263.692 186.494C263.678 186.597 263.66 186.694 263.646 186.806C263.237 190.089 261.447 190.126 261.447 190.126L263.054 193.618L262.92 195.102V203.76C262.92 204.386 263.101 204.999 263.442 205.524C263.783 206.05 264.269 206.465 264.841 206.72C265.413 206.976 266.047 207.06 266.665 206.963C267.284 206.866 267.862 206.592 268.328 206.174C268.926 205.644 269.303 204.909 269.386 204.114C270.07 197.737 271.651 183.045 271.651 183.045C272.272 179.95 266.821 171.896 265.165 170.032Z" fill="#3FBDF1"/>
<path d="M154.635 147.072C138.544 160.514 118.49 163.179 120.503 172.12C122.574 181.272 138.101 201.378 146.667 211.939C149.281 215.188 151.243 217.522 151.986 218.383C152.175 218.629 152.272 218.746 152.272 218.746H122.122C121.618 218.749 121.121 218.624 120.678 218.383C120.072 218.061 119.592 217.545 119.313 216.919C119.034 216.292 118.973 215.59 119.139 214.925C119.305 214.259 119.689 213.668 120.229 213.246C120.77 212.824 121.436 212.594 122.122 212.594H129.718L128.86 211.939C123.06 207.484 89.6782 180.786 93.0502 159.796C94.5374 150.501 102.168 141.644 110.736 134.385C114.97 130.833 119.423 127.55 124.067 124.555C124.656 124.175 125.228 123.803 125.783 123.448" stroke="black" stroke-width="1.36136" stroke-miterlimit="10"/>
<path d="M72.1121 85.7503V219.061C72.1121 219.686 71.8635 220.287 71.421 220.729C70.9785 221.172 70.3783 221.42 69.7526 221.42C69.1268 221.42 68.5266 221.172 68.0841 220.729C67.6417 220.287 67.3931 219.686 67.3931 219.061V85.7503C67.3943 85.284 67.5335 84.8284 67.7931 84.441C68.0528 84.0537 68.4213 83.7518 68.8522 83.5735C69.2831 83.3952 69.7572 83.3485 70.2146 83.4391C70.6721 83.5298 71.0924 83.7538 71.4228 84.0829C71.6429 84.301 71.8172 84.5608 71.9355 84.8471C72.0539 85.1334 72.1139 85.4405 72.1121 85.7503V85.7503Z" stroke="black" stroke-width="1.36136" stroke-miterlimit="10"/>
<path d="M83.7037 218.749C83.705 221.409 82.9461 224.013 81.5165 226.256C80.0869 228.499 78.046 230.287 75.6344 231.408C73.2227 232.53 70.5407 232.939 67.9044 232.587C65.268 232.236 62.7871 231.138 60.7538 229.423C58.7206 227.708 57.2198 225.448 56.4281 222.909C55.6365 220.37 55.5871 217.657 56.2857 215.091C56.9843 212.525 58.4017 210.211 60.3712 208.424C62.3406 206.636 64.7798 205.449 67.4017 205.001V219.061C67.4017 219.687 67.6502 220.287 68.0927 220.729C68.5352 221.172 69.1354 221.42 69.7612 221.42C70.3869 221.42 70.9871 221.172 71.4296 220.729C71.8721 220.287 72.1207 219.687 72.1207 219.061V205.001C75.363 205.558 78.3041 207.243 80.4237 209.759C82.5434 212.275 83.7052 215.459 83.7037 218.749V218.749Z" stroke="black" stroke-width="1.36136" stroke-miterlimit="10"/>
<path d="M187.593 232.703C195.3 232.703 201.547 226.455 201.547 218.749C201.547 211.042 195.3 204.795 187.593 204.795C179.887 204.795 173.639 211.042 173.639 218.749C173.639 226.455 179.887 232.703 187.593 232.703Z" stroke="black" stroke-width="1.36136" stroke-miterlimit="10"/>
<path d="M142.085 73.1262C139.997 87.1831 131.059 103.591 116.791 107.784C115.725 108.098 114.64 108.34 113.542 108.51C112.121 108.731 110.689 108.877 109.252 108.948C91.3912 109.806 83.0887 97.7022 77.0798 89.8429C74.3943 86.3051 72.1606 83.6367 69.7468 83.3908" stroke="black" stroke-width="1.36136" stroke-miterlimit="10"/>
<path d="M67.3958 85.7505V86.803C67.4066 87.5497 67.1613 88.2777 66.7008 88.8657C66.2403 89.4537 65.5924 89.8663 64.8648 90.0348C64.3955 90.136 63.9096 90.1308 63.4427 90.0197C62.9757 89.9086 62.5396 89.6943 62.1662 89.3925C61.7929 89.0908 61.4919 88.7093 61.2853 88.2761C61.0787 87.8428 60.9717 87.3688 60.9723 86.8888V86.0822C60.9723 83.1593 62.2507 80.1992 64.5473 78.3602C68.6857 75.0312 74.2284 77.6624 78.4583 79.367C79.7939 79.9132 81.1267 80.4395 82.4623 80.9657C88.1051 83.1793 93.8051 85.2757 99.485 87.4093L101.581 88.1986C102.145 88.4166 102.75 88.5043 103.352 88.4551C103.954 88.406 104.537 88.2212 105.058 87.9147C105.578 87.6083 106.023 87.188 106.358 86.6854C106.693 86.1828 106.91 85.6109 106.993 85.0126C107.356 82.5187 107.828 79.8646 108.471 77.1905C111.148 65.9907 116.694 54.3105 128.646 51.8423L128.717 51.8252C143.672 48.8021 157.557 58.6977 163.306 72.011C168.279 83.5454 174.351 94.6908 181.919 104.744C195.987 123.431 207.848 131.262 227.759 142.135C241.607 149.703 255.429 159.009 266 170.884C267.662 172.755 272.292 179.95 271.654 183.045C271.654 183.045 270.075 197.737 269.395 204.117C269.309 204.946 268.908 205.71 268.274 206.251C267.641 206.792 266.823 207.069 265.991 207.023C265.159 206.978 264.377 206.614 263.806 206.006C263.235 205.399 262.92 204.596 262.925 203.763V195.105C262.927 194.506 262.857 193.909 262.717 193.327C261.264 186.683 252.135 180.385 247.37 177.182C237.898 170.828 227.479 166.013 216.502 162.916C207.665 160.411 198.816 159.893 189.832 158.489C189.224 158.397 188.616 158.302 188.008 158.203C176.528 156.201 165.056 152.511 154.637 147.086C143.386 141.232 133.347 133.358 125.797 123.462C122.121 118.659 119.094 113.393 116.794 107.798V107.798" stroke="black" stroke-width="1.36136" stroke-miterlimit="10"/>
<path d="M83.7065 218.749H144.216H173.708" stroke="black" stroke-width="1.36136" stroke-miterlimit="10"/>
<path d="M187.662 221.414C188.963 221.414 190.018 220.359 190.018 219.058C190.018 217.756 188.963 216.701 187.662 216.701C186.36 216.701 185.305 217.756 185.305 219.058C185.305 220.359 186.36 221.414 187.662 221.414Z" stroke="black" stroke-width="1.36136" stroke-miterlimit="10"/>
<path d="M201.547 218.749H205.654C205.654 213.96 203.752 209.367 200.365 205.98C196.978 202.593 192.385 200.691 187.596 200.691C182.807 200.691 178.214 202.593 174.827 205.98C171.441 209.367 169.538 213.96 169.538 218.749" stroke="black" stroke-width="1.36136" stroke-miterlimit="10"/>
<path d="M51.6917 218.749C51.6899 214.368 53.2821 210.135 56.1712 206.842C59.0603 203.548 63.0489 201.418 67.393 200.848" stroke="black" stroke-width="1.36136" stroke-miterlimit="10"/>
<path d="M72.112 200.848C76.4543 201.419 80.4406 203.551 83.3274 206.844C86.2143 210.138 87.8047 214.369 87.802 218.749H83.7036" stroke="black" stroke-width="1.36136" stroke-miterlimit="10"/>
<path d="M111.803 22.2441C112.961 23.4481 114.849 23.634 116.425 23.5883C118.427 23.5339 120.452 23.1821 122.431 22.9019L123.623 22.919H123.641C123.87 22.9339 124.093 22.9939 124.299 23.0954C124.505 23.197 124.689 23.3381 124.84 23.5108C124.991 23.6835 125.107 23.8843 125.18 24.1018C125.254 24.3192 125.283 24.549 125.268 24.778C125.126 27.348 124.701 29.8945 124.001 32.3713L126.2 33.7584C126.549 32.9519 126.295 31.7564 127.001 31.7049C127.504 30.8984 128.208 30.3979 129.212 31.09C131.18 32.4428 131.752 36.0693 129.669 37.5765L130.779 40.0275C131.577 41.8007 134.883 42.6444 136.771 42.2069C136.119 40.4594 134.303 39.3755 134.303 39.3755C137.3 40.1133 139.671 36.4697 138.899 34.0959C138.375 32.4686 138.487 31.2359 139.436 29.7487C139.499 29.6486 138.936 29.4627 138.993 29.3655C139.096 28.2386 138.862 27.0031 138.355 26.3882C137.466 25.2928 135.547 24.9754 136.044 23.4395C136.264 22.7694 136.375 22.0684 136.373 21.3632C136.33 20.4379 136.09 19.5326 135.667 18.7082C135.245 17.8838 134.651 17.1595 133.925 16.5841C132.398 15.4401 130.548 16.2609 128.843 16.1208C126.772 15.9635 125.411 14.1188 123.234 13.9386C122.153 13.85 121.255 14.2246 120.3 14.6765C119.496 15.0683 118.704 15.4859 117.929 15.9406C117.154 16.3954 116.471 16.7986 115.587 16.7328C114.443 16.6728 113.37 15.8748 112.189 16.1322C111.597 16.2534 111.063 16.5708 110.673 17.0331C110.161 18.8035 110.682 21.08 111.803 22.2441Z" fill="#3FBDF1"/>
<path d="M126.212 33.5066C126.26 33.3693 126.309 33.2377 126.366 33.089V33.0719C126.526 32.6017 126.732 32.1485 126.981 31.7191C127.49 30.9126 128.188 30.4121 129.198 31.1013C131.168 32.457 131.734 36.0834 129.658 37.5964L130.765 40.0417C130.805 40.1328 130.852 40.2208 130.905 40.3048C131.52 41.3716 132.858 42.1352 134.377 42.2153H134.403C134.951 42.2421 135.5 42.1783 136.027 42.0265" stroke="black" stroke-width="1.36136" stroke-linecap="round" stroke-linejoin="round"/>
<path d="M114.114 27.7264C114.114 27.7264 117.972 27.0342 119.439 30.0144" stroke="black" stroke-width="1.36136" stroke-miterlimit="10"/>
<path d="M114.652 36.3896C113.608 36.6013 112.215 36.7643 111.489 35.8176L113.445 32.3113C113.921 31.4522 114.09 30.4567 113.925 29.4885C113.656 27.8611 112.878 25.3615 114.022 23.3137" stroke="black" stroke-width="1.36136" stroke-miterlimit="10"/>
<path d="M117.534 31.7173C117.853 31.2585 117.675 30.5821 117.136 30.2065C116.597 29.8309 115.901 29.8984 115.581 30.3572C115.262 30.816 115.44 31.4925 115.979 31.868C116.518 32.2436 117.214 32.1761 117.534 31.7173Z" fill="black"/>
<path d="M123.646 53.558L123.418 44.0256" stroke="black" stroke-width="1.36136" stroke-miterlimit="10"/>
<path d="M126.186 33.7671C126.186 33.6784 126.206 33.5897 126.212 33.5011C126.218 33.4124 126.238 33.3152 126.24 33.2151" stroke="black" stroke-width="1.36136" stroke-linecap="round" stroke-linejoin="round"/>
<path d="M126.186 33.767L125.431 33.2951L123.987 32.3799" stroke="black" stroke-width="1.36136" stroke-linecap="round" stroke-linejoin="round"/>
<path d="M119.671 36.9817C119.671 36.9817 119.428 39.5071 116.465 40.3593" stroke="black" stroke-width="1.36136" stroke-miterlimit="10"/>
<path d="M134.289 39.384C137.286 40.1219 139.657 36.4783 138.885 34.1045C138.361 32.4771 138.473 31.2445 139.422 29.7573C139.485 29.6572 139.539 29.5571 139.594 29.4713C139.946 28.8541 140.104 28.1454 140.049 27.4371C139.993 26.7288 139.726 26.0535 139.282 25.4987C138.424 24.3261 137.046 23.8428 137.566 22.2526C137.795 21.5627 137.911 20.8403 137.909 20.1133C137.865 19.1593 137.616 18.2259 137.18 17.3762C136.744 16.5265 136.13 15.7804 135.381 15.1884C133.811 13.9901 131.898 14.8567 130.133 14.7137C128.008 14.5421 126.589 12.6287 124.359 12.4543C123.246 12.3685 122.314 12.7403 121.33 13.215C120.5 13.624 119.68 14.0559 118.89 14.522C118.101 14.9882 117.377 15.3972 116.468 15.34C115.278 15.2714 114.18 14.4477 112.97 14.7194C111.76 14.9911 110.988 15.9177 110.682 17.0417C110.184 18.8035 110.705 21.08 111.826 22.244C112.947 23.4081 114.872 23.634 116.448 23.5882C118.45 23.5339 120.475 23.1821 122.454 22.9018L123.646 22.919H123.664C124.122 22.9549 124.548 23.1703 124.848 23.5184C125.149 23.8665 125.3 24.3192 125.268 24.778C125.126 27.348 124.701 29.8945 124.001 32.3713" stroke="black" stroke-width="1.36136" stroke-miterlimit="10"/>
<path d="M126.126 41.6349C126.126 41.6349 121.207 47.3549 117.277 45.7333C113.348 44.1116 113.634 36.6699 113.634 36.6699" stroke="black" stroke-width="1.36136" stroke-linecap="round" stroke-linejoin="round"/>
<path d="M83.1946 97.6106L83.4405 97.8566C83.2832 98.0625 83.1116 98.2655 82.9315 98.4715L83.1946 97.6106Z" fill="#2E2E2E"/>
<path d="M87.8391 83.3536L87.6332 83.2706L87.7161 82.9846C87.7658 83.1045 87.8069 83.2278 87.8391 83.3536V83.3536Z" fill="#2E2E2E"/>
<path d="M69.7497 232.7H230.018" stroke="black" stroke-width="1.36136" stroke-miterlimit="10"/>
<path d="M134.686 39.4556L141.478 52.4714" stroke="black" stroke-width="1.36136" stroke-linecap="round" stroke-linejoin="round"/>
<path d="M216.104 131.339C216.104 131.339 242.868 142.85 248.248 149.972" stroke="black" stroke-width="1.36136" stroke-miterlimit="10"/>
<path d="M211.268 218.386H222.763" stroke="black" stroke-width="1.36136" stroke-miterlimit="10"/>
<path d="M217.014 215.165H234.257" stroke="black" stroke-width="1.36136" stroke-miterlimit="10"/>
<path d="M184.047 70.0232C194.592 70.0232 203.14 61.4748 203.14 50.9298C203.14 40.3848 194.592 31.8364 184.047 31.8364C173.502 31.8364 164.953 40.3848 164.953 50.9298C164.953 61.4748 173.502 70.0232 184.047 70.0232Z" stroke="#CCDDE2" stroke-width="1.36136" stroke-miterlimit="10"/>
<path d="M184.047 61.4176C189.839 61.4176 194.534 56.7222 194.534 50.93C194.534 45.1379 189.839 40.4424 184.047 40.4424C178.255 40.4424 173.559 45.1379 173.559 50.93C173.559 56.7222 178.255 61.4176 184.047 61.4176Z" stroke="#CCDDE2" stroke-width="1.36136" stroke-miterlimit="10"/>
<path d="M184.047 52.7287C185.04 52.7287 185.846 51.9233 185.846 50.9298C185.846 49.9363 185.04 49.1309 184.047 49.1309C183.053 49.1309 182.248 49.9363 182.248 50.9298C182.248 51.9233 183.053 52.7287 184.047 52.7287Z" stroke="#CCDDE2" stroke-width="1.36136" stroke-miterlimit="10"/>
<path d="M187.768 44.9268L184.993 49.3998" stroke="#CCDDE2" stroke-width="1.36136" stroke-miterlimit="10"/>
<path d="M184.047 40.4424V42.3071" stroke="#CCDDE2" stroke-width="1.36136" stroke-miterlimit="10"/>
<path d="M194.534 50.9297H192.767" stroke="#CCDDE2" stroke-width="1.36136" stroke-miterlimit="10"/>
<path d="M184.047 61.4175V59.6042" stroke="#CCDDE2" stroke-width="1.36136" stroke-miterlimit="10"/>
<path d="M173.559 50.9297H175.152" stroke="#CCDDE2" stroke-width="1.36136" stroke-miterlimit="10"/>
</svg>
