<svg class="force-stroke-txt-color" xmlns="http://www.w3.org/2000/svg" xmlns:xlink="http://www.w3.org/1999/xlink" viewBox="0 0 925.46 853.41"><circle cx="442.09" cy="197.59" r="18.58" fill="#d7e8f0"></circle><circle cx="490.26" cy="200.86" r="18.58" transform="translate(61.64 507.37) rotate(-58.28)" fill="#d7e8f0"></circle><path d="M738.65,100.27" transform="translate(0 -4.91)" fill="none" stroke="#ccdde2" stroke-miterlimit="10" stroke-width="5.55"></path><path d="M124.94,502.56A208.74,208.74,0,0,1,100.41,476,152.4,152.4,0,0,1,71.13,367c5.09-41.86,28.67-85.37,67.09-104.73,41-20.65,91.79-16.38,128.23-47,30.39-25.61,41.09-67.21,63.33-99.34,19-27.37,42-52.34,69.89-70.84,0,0,202.33-127,367.53,87.43,63.9,98.73,27.85,218,27.85,218" transform="translate(0 -4.91)" fill="none" stroke="#ccdde2" stroke-miterlimit="10" stroke-width="5.55"></path><path d="M210.75,601.49c29.57,104.13-8.89,148.15-8.89,148.15" transform="translate(0 -4.91)" fill="none" stroke="#ccdde2" stroke-miterlimit="10" stroke-width="5.55"></path><path d="M689.38,307.85a74.76,74.76,0,0,0-18.28-32.16,89.82,89.82,0,0,0-67-27.9c-17.55.56-40.36,4.62-54.71-8.23-7.51-6.68-9.1-17.55-12-26.6a311.51,311.51,0,0,1-8-31.09,88.57,88.57,0,0,0-10.66-28.32,65,65,0,0,0-22.9-23c-17.76-10.26-42.55-11.21-60.4-.69a52.31,52.31,0,0,0-7.2,5.18,17.89,17.89,0,0,0-1.51,1.38c-15.48,14.27-22.94,37.34-22.55,58v6.77c.05,1.85.09,4.09.05,6.55C405,219.85,407,272,384.51,300c10.91-3.4,22-6.46,33.16-9h.09c1.16-.65,12.29-6.55,19.75-4a9.18,9.18,0,0,1,5.9,6.21c0,.08,0,.13.09.17.09.35.22.73.3,1.12a9.55,9.55,0,0,0,.3,1.08,36.87,36.87,0,0,0,3.84,8.19,6.23,6.23,0,0,0,.78,1.12,28.86,28.86,0,0,0,5.52,5.52c-.78-.77-1.6-1.64-2.46-2.5a26.64,26.64,0,0,1-7.68-22.12s1.86,2.24,5.65.08-1.94-20.82-3.36-26.39c-.52-2.07,2.54-1.81,7.29-.64a50.74,50.74,0,0,1-9.4-8.28,52.2,52.2,0,0,1-5.26-6.86c-6.82-10.6-9.4-18.75-10.78-28.84h0a18.38,18.38,0,0,1,1-25.57,1.48,1.48,0,0,1,.26-.3c2.15-2.76,6.55-3.8,9.4-5.82a39.48,39.48,0,0,0,8-8.07c2.63-3.45,7-8.53,6.6-13.19,1.16,12.63,12.11,21,24.23,21.34a85.34,85.34,0,0,0,8.75-.47h.09a18.15,18.15,0,0,1,3.75-.39,18.48,18.48,0,0,1,15.18,7.89,6.45,6.45,0,0,1,.47.69c.22.34.43.73.65,1.12a17.84,17.84,0,0,1,1.77,3.45c2.76,7.07,2.54,15,2.11,22.46-.65,11-3.19,22.55-9.31,31.95a2.63,2.63,0,0,1,2.06-.65c4.75.82,1.39,31.52,6.64,33.12s5,5.69,5,5.69a16.52,16.52,0,0,1-.17,2.11,32.34,32.34,0,0,0,.52-7.67c1.55.08,3.1.25,4.65.47,8.8-3,26,6.42,26,6.42a.11.11,0,0,0,.09.05c41.3,15.91,69.46,55.79,79,100.28a237.56,237.56,0,0,1,5.39,48.72v-81.9a7.75,7.75,0,0,1,7.74-7.76h53.18C690.41,334.93,693,321.44,689.38,307.85ZM475.74,319.93c1.42.38,2.89.73,4.36,1,.94,0,1.89-.09,2.84-.17a35.58,35.58,0,0,0,19.32-8.41c-5.31,3.75-12,6.08-19.79,7C479.92,319.67,477.68,319.84,475.74,319.93Zm21.09-64.59a32.68,32.68,0,0,1-19,9.57,28.3,28.3,0,0,0,4.1.39C489.11,265.43,493.51,260,496.83,255.34Z" transform="translate(0 -4.91)" fill="#3fbdf1"></path><path d="M608.24,534c-2.56,6.89-4.36,10.75-4.36,10.75.69,32.77-19.36,107.77-19.36,107.77-26.77,2.37-50.49,1.86-71.53-.77C566.59,611.55,593,567.89,608.24,534Z" transform="translate(0 -4.91)" fill="#2e2e2e" class="fill-bg-color-dark"></path><path d="M627.85,444.36c-66.57-25-107.36,11.29-107.36,11.29-.08,97.71-83.77,151.82-102.4,162.59-47.41-31.81-60.49-73.49-60.49-73.49l4.27-5c3-8.36,10.69-34.36,13.2-59.41,2.37-23.67-.31-46.52-.48-52.95-.39-13.23-6.38-10.21-13.41-7.67S321.6,423,321.6,423C357.68,402.75,339,316.55,339,316.55L417.62,291s22.25-12.54,26.13,3.45,19.36,23,36.3,26.6,32.6-15.91,34.71-31.69,31,0,31,0C617,324.75,631.26,389.13,627.85,444.36Z" transform="translate(0 -4.91)" fill="#2e2e2e" class="fill-bg-color-dark"></path><path d="M322.68,743.41H322" transform="translate(0 -4.91)" fill="none" stroke="#000" stroke-miterlimit="10" stroke-width="5.55"></path><path d="M292.46,350.41c21.86-9.4,37.55-33.29,51-51.83,9-12.33,20-28.32,29-40.57,8.8-11.9,26.35-33,31.05-47,.21-.6.38-1.2.56-1.77" transform="translate(0 -4.91)" fill="none" stroke="#000" stroke-miterlimit="10" stroke-width="5.55"></path><path d="M372.78,417.63C347.73,422.8,236.71,441,223.94,360,209.5,268.66,356.05,233.91,368.08,206.27s-.4-57.72,31.26-71.72c14-6.21,23.84-4.91,27.21,1.9" transform="translate(0 -4.91)" fill="none" stroke="#000" stroke-miterlimit="10" stroke-width="5.55"></path><path d="M163.68,767.12c11.85-56.13,39.23-170,76.44-225.19" transform="translate(0 -4.91)" fill="none" stroke="#000" stroke-miterlimit="10" stroke-width="5.55"></path><path d="M368.43,401.75c10.25,31.3,15.45,80.7-10.11,147.88" transform="translate(0 -4.91)" fill="none" stroke="#000" stroke-miterlimit="10" stroke-width="5.55"></path><path d="M228.68,561.17c15.78,41.58,26,93.36,72.61,156.58" transform="translate(0 -4.91)" fill="none" stroke="#000" stroke-miterlimit="10" stroke-width="5.55"></path><path d="M519.59,438.15c7.2,69.72-28.84,144.22-122.58,191.69-29.57,15-57.17,35-77.83,61.14a203.19,203.19,0,0,0-15.58,23c-3.54,6-11.69,17-7.86,24.31,2,3.83,5.3,5.18,9.41,5.18,11.22,0,22.61-28.45,31.41-41.14" transform="translate(0 -4.91)" fill="none" stroke="#000" stroke-miterlimit="10" stroke-width="5.55"></path><path d="M356.89,710.11s-20.21,32.94-34.21,33.32-4.1-10.82-4.1-10.82" transform="translate(0 -4.91)" fill="none" stroke="#000" stroke-miterlimit="10" stroke-width="5.55"></path><path d="M452.8,284.48C408.48,290.43,364.24,305,325,322.56" transform="translate(0 -4.91)" fill="none" stroke="#000" stroke-miterlimit="10" stroke-width="5.55"></path><path d="M371.27,721.12a1.85,1.85,0,0,1-.3.39c-1.68,2.28-3.49,4.7-5.48,7-4.74,5.74-10.21,11.13-17.16,13.41-5.56,1.86-16.85.44-10.43-7.46" transform="translate(0 -4.91)" fill="none" stroke="#000" stroke-miterlimit="10" stroke-width="5.55"></path><path d="M336.91,735.91a4.09,4.09,0,0,0-.69.17" transform="translate(0 -4.91)" fill="none" stroke="#000" stroke-miterlimit="10" stroke-width="5.55"></path><path d="M507.26,713.62c-22.42.08-43.46,1.2-63,3-17.9,1.64-27,2.68-42.41,5.31" transform="translate(0 -4.91)" fill="none" stroke="#000" stroke-miterlimit="10" stroke-width="5.55"></path><path d="M365.68,728.75a13.88,13.88,0,0,0-1.81.39h0" transform="translate(0 -4.91)" fill="none" stroke="#000" stroke-miterlimit="10" stroke-width="5.55"></path><path d="M316.34,742.07a368.15,368.15,0,0,0-45.61,17.68,3.62,3.62,0,0,1-4.87-1.59,3.57,3.57,0,0,1-.39-1.73,19.2,19.2,0,0,0-19.19-19.18,16.81,16.81,0,0,0-3.32.3h-.13a18.15,18.15,0,0,0-3.32,1l-75.83,28.57c-1.6.61-3.15,1.21-4.66,1.77s-2.71,1-4,1.51c-5.13,1.94-9.48,3.58-12.72,4.79-.86.3-1.64.64-2.41.9L134.68,778a20.68,20.68,0,0,0-13.45,11.72,16.94,16.94,0,0,0-1.46,5.13h0a20.33,20.33,0,0,0-.22,2.81A20.62,20.62,0,0,0,140,818.12H619a51.28,51.28,0,0,0,30.69-92.26l-51.86-40.48c-9.06-7.08-17-22-13.33-32.86a385.39,385.39,0,0,0,19.39-107.77" transform="translate(0 -4.91)" fill="none" stroke="#000" stroke-miterlimit="10" stroke-width="5.55"></path><path d="M119.68,799.93H37a14.27,14.27,0,0,1-14.31-14.18h0c0-7,7.2-14.79,14.1-16l59.9-9.26c-3.88-149.53,23-267.75,53.38-320,9.2-15.86,23.93-27,40.62-33.15,37.5-13.75,79.51,2.2,100.7,36.05L317.44,485l32.78,52.36c.28.43.57.86.87,1.27l13.39,17.94" transform="translate(0 -4.91)" fill="none" stroke="#000" stroke-miterlimit="10" stroke-width="5.55"></path><path d="M384.55,299.88C407.4,282.88,404,194.42,404,194.42c-.39-21.26,7.54-45.15,24.06-59.33a52.31,52.31,0,0,1,7.2-5.18c17.85-10.52,42.64-9.57,60.4.69a65,65,0,0,1,22.9,23,88.65,88.65,0,0,1,10.73,28.28,311.51,311.51,0,0,0,8,31.09c2.85,9,4.44,19.92,11.94,26.6,14.36,12.85,37.17,8.79,54.72,8.23,24.85-.79,49.93,9.85,67,27.9a75.25,75.25,0,0,1,18.28,32.15c3.6,13.61,1,27.11,1.93,40.93" transform="translate(0 -4.91)" fill="none" stroke="#000" stroke-miterlimit="10" stroke-width="5.55"></path><polyline points="457.01 297.86 451.63 274.56 444.22 245.58" fill="none" stroke="#000" stroke-miterlimit="10" stroke-width="5.55"></polyline><path d="M476.85,229.85h-19" transform="translate(0 -4.91)" fill="none" stroke="#000" stroke-miterlimit="10" stroke-width="5.55"></path><path d="M797.74,559.21a21.28,21.28,0,0,1-21.22,21.34h-.07a21,21,0,0,1-7.55-1.38A21.31,21.31,0,0,1,784,542.82a20.68,20.68,0,0,1,7.5,1.38A21.14,21.14,0,0,1,797.74,559.21Z" transform="translate(0 -4.91)" fill="#d7e8f0"></path><path d="M797.74,423.05a21.28,21.28,0,0,1-21.26,21.3h0a12.78,12.78,0,0,1-14.27-11.07,13,13,0,0,1,.47-5.36A21.29,21.29,0,0,1,784,406.62h0a20.53,20.53,0,0,1,7.59,1.42A21.26,21.26,0,0,1,797.74,423.05Z" transform="translate(0 -4.91)" fill="#d7e8f0"></path><path d="M797.74,702.75a21.28,21.28,0,0,1-21.26,21.3h0a20.53,20.53,0,0,1-7.55-1.38A21.31,21.31,0,0,1,784,686.33a20.68,20.68,0,0,1,7.5,1.38A21.12,21.12,0,0,1,797.74,702.75Z" transform="translate(0 -4.91)" fill="#d7e8f0"></path><path d="M797.74,559.21a21.28,21.28,0,0,1-21.22,21.34h-.07a21,21,0,0,1-7.55-1.38A21.31,21.31,0,0,1,784,542.82a20.68,20.68,0,0,1,7.5,1.38A21.14,21.14,0,0,1,797.74,559.21Z" transform="translate(0 -4.91)" fill="#d7e8f0"></path><path d="M797.74,423.05a21.28,21.28,0,0,1-21.26,21.3h0a12.78,12.78,0,0,1-14.27-11.07,13,13,0,0,1,.47-5.36A21.29,21.29,0,0,1,784,406.62h0a20.53,20.53,0,0,1,7.59,1.42A21.26,21.26,0,0,1,797.74,423.05Z" transform="translate(0 -4.91)" fill="#d7e8f0"></path><path d="M797.74,702.75a21.28,21.28,0,0,1-21.26,21.3h0a20.53,20.53,0,0,1-7.55-1.38A21.31,21.31,0,0,1,784,686.33a20.68,20.68,0,0,1,7.5,1.38A21.12,21.12,0,0,1,797.74,702.75Z" transform="translate(0 -4.91)" fill="#d7e8f0"></path><circle cx="442.09" cy="197.59" r="18.58" fill="none" stroke="#000" stroke-miterlimit="10" stroke-width="5.55" class="fill-bg-color-dark"></circle><circle cx="490.26" cy="200.86" r="18.58" transform="translate(61.64 507.37) rotate(-58.28)" fill="none" stroke="#000" stroke-miterlimit="10" stroke-width="5.55" class="fill-bg-color-dark"></circle><path d="M435.22,203.88s6.6-8.59,13.39,0" transform="translate(0 -4.91)" fill="none" stroke="#000" stroke-miterlimit="10" stroke-width="5.55"></path><path d="M483.46,203.88s6.71-8.59,13.63,0" transform="translate(0 -4.91)" fill="none" stroke="#000" stroke-miterlimit="10" stroke-width="5.55"></path><path d="M460.68,202.55s4.22-6.85,11-1.65" transform="translate(0 -4.91)" fill="none" stroke="#000" stroke-miterlimit="10" stroke-width="5.55"></path><path d="M428.18,214.75c1.38,10.09,4,18.28,10.78,28.88,7.12,11,19.92,21.56,33.38,21.65a33.3,33.3,0,0,0,28.76-15.47c6.12-9.39,8.68-20.91,9.33-32,.43-7.45.61-15.38-2.11-22.46-3-7.74-10-13-18.36-12.9-4.11.06-8.19.82-12.3.69-12.14-.37-23.08-8.71-24.25-21.35.43,4.63-4,9.72-6.57,13.2a39.9,39.9,0,0,1-8,8c-2.9,2.13-7.57,3.15-9.64,6.12" transform="translate(0 -4.91)" fill="none" stroke="#000" stroke-miterlimit="10" stroke-width="5.55"></path><path d="M670.15,769.67H914.88a7.8,7.8,0,0,0,7.8-7.76V356.55a7.75,7.75,0,0,0-7.74-7.76H638a7.75,7.75,0,0,0-7.76,7.74h0V710.64" transform="translate(0 -4.91)" fill="none" stroke="#000" stroke-miterlimit="10" stroke-width="5.55"></path><rect x="630.24" y="483.33" width="292.42" height="141.94" fill="none" stroke="#000" stroke-miterlimit="10" stroke-width="5.55"></rect><path d="M514.92,279.55c2.3,20.56-12.09,39-32.13,41.27s-38.11-12.63-40.45-33.19" transform="translate(0 -4.91)" fill="none" stroke="#000" stroke-miterlimit="10" stroke-width="5.55"></path><path d="M504.68,243.26,508.82,282h0q3,.13,6,.39c58.16,4.57,98.17,52.43,110,107.27a237.58,237.58,0,0,1,5.39,48.73,221.2,221.2,0,0,1-8.5,61.91,245.89,245.89,0,0,1-24.23,56.14,307.79,307.79,0,0,1-36.89,50.13,404.66,404.66,0,0,1-46.65,43.85c-13.58,10.9-27.85,20.82-42.25,30.57-12.89,8.7-27,15.3-40.44,23q-21,12-40.88,25.7c-7.07,4.91-15.78,9.48-24.14,4.74-2.33-1.29-2-3.54-.74-5.87,1.47-2.71,4.23-5.51,5.48-7" transform="translate(0 -4.91)" fill="none" stroke="#000" stroke-miterlimit="10" stroke-width="5.55"></path><circle cx="776.45" cy="554.3" r="21.31" fill="none" stroke="#000" stroke-miterlimit="10" stroke-width="5.55"></circle><circle cx="776.45" cy="418.12" r="21.31" fill="none" stroke="#000" stroke-miterlimit="10" stroke-width="5.55"></circle><circle cx="776.45" cy="697.87" r="21.31" fill="none" stroke="#000" stroke-miterlimit="10" stroke-width="5.55"></circle><path d="M622.42,497.65c-3.53,9.83-7.89,22.25-14.18,36.35,6.2-16.69,17.29-50.92,19.61-89.64C627.85,444.36,635.23,462.42,622.42,497.65Z" transform="translate(0 -4.91)"></path><path d="M453.8,258.75c6.55,1.64,16.38,5,24,6.12a31.37,31.37,0,0,1-5.3.39C465.91,265.26,459.49,262.75,453.8,258.75Z" transform="translate(0 -4.91)" fill="none"></path><path d="M454.36,310.31c5.77,4.57,13.28,7.55,21.38,9.62C464.27,320.4,461,317.12,454.36,310.31Z" transform="translate(0 -4.91)" fill="none"></path><path d="M501.18,249.91a34.41,34.41,0,0,1-4.35,5.43A31.6,31.6,0,0,1,501.18,249.91Z" transform="translate(0 -4.91)" fill="none"></path><path d="M514,293.88c.25-1,.49-2,.66-3-1,9.52-5.47,16.73-12.39,21.51a36.72,36.72,0,0,0,7.42-8.64c.34-.65.73-1.3,1.07-1.94a5.51,5.51,0,0,0,.31-.65c.33-.59.63-1.19.9-1.81s.48-1.12.69-1.68a8.94,8.94,0,0,0,.52-1.42A19.37,19.37,0,0,0,514,293.88Z" transform="translate(0 -4.91)" fill="none"></path><path d="M514.68,290.75v.09c0-.26.09-.51.11-.78A3.3,3.3,0,0,1,514.68,290.75Z" transform="translate(0 -4.91)" fill="none"></path></svg>