<?xml version="1.0" encoding="utf-8"?>
<!-- Generator: Adobe Illustrator 25.4.1, SVG Export Plug-In . SVG Version: 6.00 Build 0)  -->
<svg version="1.1" id="Layer_1" xmlns="http://www.w3.org/2000/svg" xmlns:xlink="http://www.w3.org/1999/xlink" x="0px" y="0px"
	 viewBox="0 0 50 50" style="enable-background:new 0 0 50 50;" xml:space="preserve">
<path d="M42.35,20.13H7.69c-2.27,0-4.1-1.84-4.1-4.1V7.59c0-2.27,1.84-4.1,4.1-4.1h34.66c2.27,0,4.1,1.84,4.1,4.1v8.44
	C46.45,18.3,44.61,20.13,42.35,20.13z"/>
<path d="M42.39,46.49H7.61c-2.22,0-4.02-1.8-4.02-4.02V30.23c0-2.22,1.8-4.02,4.02-4.02h34.79c2.22,0,4.02,1.8,4.02,4.02v12.24
	C46.42,44.69,44.61,46.49,42.39,46.49z"/>
</svg>
