<svg width="20" height="20" viewBox="0 0 20 20" xmlns="http://www.w3.org/2000/svg">
<path d="M11.5225 20H7.88252C7.65445 20 7.43322 19.9221 7.25552 19.7792C7.07782 19.6362 6.95433 19.4368 6.90552 19.214L6.49852 17.33C5.95558 17.0921 5.44075 16.7946 4.96352 16.443L3.12652 17.028C2.90908 17.0973 2.67447 17.0902 2.46164 17.0078C2.24881 16.9254 2.07057 16.7727 1.95652 16.575L0.132521 13.424C0.0196664 13.2261 -0.0226964 12.9958 0.0123634 12.7708C0.0474233 12.5457 0.15783 12.3392 0.325521 12.185L1.75052 10.885C1.68572 10.2961 1.68572 9.70189 1.75052 9.113L0.325521 7.816C0.157592 7.66177 0.0470356 7.45507 0.01197 7.22978C-0.0230956 7.00449 0.0194104 6.77397 0.132521 6.576L1.95252 3.423C2.06657 3.22532 2.24481 3.07259 2.45764 2.99019C2.67047 2.90778 2.90508 2.90066 3.12252 2.97L4.95952 3.555C5.20352 3.375 5.45752 3.207 5.71952 3.055C5.97252 2.913 6.23252 2.784 6.49852 2.669L6.90652 0.787C6.95509 0.564198 7.07835 0.364688 7.25587 0.221549C7.43338 0.0784098 7.65449 0.000239966 7.88252 0H11.5225C11.7506 0.000239966 11.9717 0.0784098 12.1492 0.221549C12.3267 0.364688 12.4499 0.564198 12.4985 0.787L12.9105 2.67C13.4528 2.90927 13.9674 3.20668 14.4455 3.557L16.2835 2.972C16.5008 2.90292 16.7352 2.91017 16.9478 2.99256C17.1604 3.07495 17.3385 3.22753 17.4525 3.425L19.2725 6.578C19.5045 6.985 19.4245 7.5 19.0795 7.817L17.6545 9.117C17.7193 9.70589 17.7193 10.3001 17.6545 10.889L19.0795 12.189C19.4245 12.507 19.5045 13.021 19.2725 13.428L17.4525 16.581C17.3385 16.7787 17.1602 16.9314 16.9474 17.0138C16.7346 17.0962 16.5 17.1033 16.2825 17.034L14.4455 16.449C13.9687 16.8003 13.4542 17.0975 12.9115 17.335L12.4985 19.214C12.4498 19.4366 12.3264 19.6359 12.1489 19.7788C11.9714 19.9218 11.7504 19.9998 11.5225 20ZM9.69852 6C8.63766 6 7.62024 6.42143 6.87009 7.17157C6.11995 7.92172 5.69852 8.93913 5.69852 10C5.69852 11.0609 6.11995 12.0783 6.87009 12.8284C7.62024 13.5786 8.63766 14 9.69852 14C10.7594 14 11.7768 13.5786 12.5269 12.8284C13.2771 12.0783 13.6985 11.0609 13.6985 10C13.6985 8.93913 13.2771 7.92172 12.5269 7.17157C11.7768 6.42143 10.7594 6 9.69852 6Z"/>
</svg>
