<svg width="22" height="24" viewBox="0 0 22 24" xmlns="http://www.w3.org/2000/svg">
<path d="M17.9967 0C18.6564 0.000121104 19.3057 0.163462 19.8869 0.475462C20.4681 0.787462 20.9631 1.23842 21.3277 1.78815C21.6923 2.33787 21.9152 2.96927 21.9766 3.62606C22.0379 4.28284 21.9358 4.94461 21.6794 5.55236C21.4229 6.1601 21.02 6.69495 20.5067 7.10921C19.9933 7.52347 19.3855 7.80427 18.7372 7.92657C18.089 8.04888 17.4206 8.0089 16.7916 7.81019C16.1626 7.61148 15.5926 7.26021 15.1323 6.78771L7.85514 10.9484C8.04256 11.6368 8.04256 12.3629 7.85514 13.0513L15.1336 17.2107C15.8129 16.5142 16.7228 16.0893 17.6929 16.0156C18.663 15.9419 19.6266 16.2245 20.4033 16.8103C21.18 17.3962 21.7164 18.2452 21.912 19.1982C22.1076 20.1512 21.949 21.1429 21.4659 21.9873C20.9828 22.8318 20.2084 23.4711 19.2877 23.7855C18.367 24.0999 17.3633 24.0678 16.4646 23.6952C15.5659 23.3226 14.8339 22.6351 14.4057 21.7615C13.9776 20.8879 13.8827 19.8881 14.1388 18.9496L6.86166 14.7889C6.30678 15.3585 5.59467 15.7497 4.81633 15.9125C4.038 16.0752 3.22881 16.0022 2.49219 15.7027C1.75557 15.4032 1.12499 14.8909 0.681056 14.2312C0.237122 13.5715 0 12.7944 0 11.9992C0 11.204 0.237122 10.4269 0.681056 9.76718C1.12499 9.10747 1.75557 8.59512 2.49219 8.29563C3.22881 7.99614 4.038 7.92312 4.81633 8.08589C5.59467 8.24866 6.30678 8.63984 6.86166 9.20942L14.1388 5.04878C13.978 4.45582 13.956 3.8338 14.0744 3.23096C14.1928 2.62811 14.4484 2.06063 14.8215 1.57252C15.1946 1.08441 15.6751 0.68878 16.2257 0.416307C16.7763 0.143835 17.3823 0.000506776 17.9967 0Z"/>
</svg>
