<svg xmlns="http://www.w3.org/2000/svg" viewBox="0 0 700 550" width="24" height="18"><g><path d="m477.8 188.8c35.1 54.6 35.7 125.3 1.2 180.5-4.2 6.6-11.4 10.3-18.7 10.3-4.1 0-8.1-1.1-11.8-3.3-10.3-6.5-13.4-20.2-7-30.5 25.4-40.6 25-92.7-0.8-133-6.5-10.3-3.7-24 6.6-30.6 10.1-6.7 24-3.7 30.5 6.6z" class="first-wave"></path><path d="m552.3 422.6c-4.4 6.5-11.4 10-18.5 10-4.1 0-8.4-1.2-12.1-3.7-10.2-6.6-13-20.4-6.3-30.6 46.5-70.4 47.4-161.7 2.4-232.9-6.6-10.3-3.5-24 6.9-30.5 10.3-6.4 23.9-3.5 30.4 6.9 54.3 85.9 53 196-2.8 280.8z" class="second-wave"></path><path class="s0" d="m399.5 100.8v358.2c0 24.5-28 38.3-47.4 23.3l-128.5-99.2h-89.2c-16.3 0-29.4-13.2-29.4-29.4v-147.4c0-16.2 13.1-29.4 29.6-29.5h89.2l128.5-99.3c19.4-14.9 47.4-1 47.2 23.3z"></path></g></svg>