<svg width="30" height="30" viewBox="0 0 30 30" fill="none" xmlns="http://www.w3.org/2000/svg">
<path d="M15 8.18185C13.1917 8.18185 11.4575 8.90019 10.1788 10.1788C8.90016 11.4575 8.18182 13.1917 8.18182 15C8.18182 16.8083 8.90016 18.5426 10.1788 19.8212C11.4575 21.0999 13.1917 21.8182 15 21.8182C16.8083 21.8182 18.5425 21.0999 19.8212 19.8212C21.0998 18.5426 21.8182 16.8083 21.8182 15C21.8182 13.1917 21.0998 11.4575 19.8212 10.1788C18.5425 8.90019 16.8083 8.18185 15 8.18185Z" fill="#2E4051"/>
<path fill-rule="evenodd" clip-rule="evenodd" d="M15 3.05176e-05C15.3617 3.05176e-05 15.7085 0.143699 15.9642 0.39943C16.22 0.655162 16.3636 1.00201 16.3636 1.36367V2.7273C16.3636 3.08896 16.22 3.43581 15.9642 3.69154C15.7085 3.94727 15.3617 4.09094 15 4.09094C14.6383 4.09094 14.2915 3.94727 14.0358 3.69154C13.78 3.43581 13.6364 3.08896 13.6364 2.7273V1.36367C13.6364 1.00201 13.78 0.655162 14.0358 0.39943C14.2915 0.143699 14.6383 3.05176e-05 15 3.05176e-05ZM3.12682 3.12685C3.38254 2.87121 3.72932 2.72759 4.09091 2.72759C4.4525 2.72759 4.79928 2.87121 5.055 3.12685L7.10045 5.1723C7.34885 5.42949 7.4863 5.77395 7.48319 6.13149C7.48009 6.48903 7.33667 6.83104 7.08384 7.08387C6.83101 7.3367 6.489 7.48012 6.13146 7.48322C5.77392 7.48633 5.42946 7.34888 5.17227 7.10048L3.12682 5.05503C2.87118 4.79931 2.72756 4.45253 2.72756 4.09094C2.72756 3.72935 2.87118 3.38257 3.12682 3.12685ZM26.8732 3.12685C27.1288 3.38257 27.2724 3.72935 27.2724 4.09094C27.2724 4.45253 27.1288 4.79931 26.8732 5.05503L24.8277 7.10048C24.7019 7.23073 24.5515 7.33461 24.3851 7.40608C24.2187 7.47754 24.0398 7.51516 23.8587 7.51674C23.6777 7.51831 23.4981 7.48381 23.3305 7.41524C23.1629 7.34668 23.0107 7.24542 22.8826 7.11739C22.7546 6.98935 22.6534 6.8371 22.5848 6.66951C22.5162 6.50193 22.4817 6.32236 22.4833 6.1413C22.4849 5.96024 22.5225 5.7813 22.594 5.61493C22.6654 5.44856 22.7693 5.29809 22.8995 5.1723L24.945 3.12685C25.2007 2.87121 25.5475 2.72759 25.9091 2.72759C26.2707 2.72759 26.6175 2.87121 26.8732 3.12685ZM0 15C0 14.6384 0.143668 14.2915 0.3994 14.0358C0.655131 13.7801 1.00198 13.6364 1.36364 13.6364H2.72727C3.08893 13.6364 3.43578 13.7801 3.69151 14.0358C3.94724 14.2915 4.09091 14.6384 4.09091 15C4.09091 15.3617 3.94724 15.7085 3.69151 15.9643C3.43578 16.22 3.08893 16.3637 2.72727 16.3637H1.36364C1.00198 16.3637 0.655131 16.22 0.3994 15.9643C0.143668 15.7085 0 15.3617 0 15ZM25.9091 15C25.9091 14.6384 26.0528 14.2915 26.3085 14.0358C26.5642 13.7801 26.9111 13.6364 27.2727 13.6364H28.6364C28.998 13.6364 29.3449 13.7801 29.6006 14.0358C29.8563 14.2915 30 14.6384 30 15C30 15.3617 29.8563 15.7085 29.6006 15.9643C29.3449 16.22 28.998 16.3637 28.6364 16.3637H27.2727C26.9111 16.3637 26.5642 16.22 26.3085 15.9643C26.0528 15.7085 25.9091 15.3617 25.9091 15ZM7.10045 22.8996C7.3561 23.1553 7.49971 23.5021 7.49971 23.8637C7.49971 24.2253 7.3561 24.572 7.10045 24.8278L5.055 26.8732C4.79781 27.1216 4.45336 27.2591 4.09582 27.256C3.73828 27.2528 3.39626 27.1094 3.14343 26.8566C2.8906 26.6038 2.74719 26.2618 2.74408 25.9042C2.74097 25.5467 2.87842 25.2022 3.12682 24.945L5.17227 22.8996C5.42799 22.6439 5.77478 22.5003 6.13636 22.5003C6.49795 22.5003 6.84473 22.6439 7.10045 22.8996ZM22.8995 22.8996C23.1553 22.6439 23.502 22.5003 23.8636 22.5003C24.2252 22.5003 24.572 22.6439 24.8277 22.8996L26.8732 24.945C27.1216 25.2022 27.259 25.5467 27.2559 25.9042C27.2528 26.2618 27.1094 26.6038 26.8566 26.8566C26.6037 27.1094 26.2617 27.2528 25.9042 27.256C25.5466 27.2591 25.2022 27.1216 24.945 26.8732L22.8995 24.8278C22.6439 24.572 22.5003 24.2253 22.5003 23.8637C22.5003 23.5021 22.6439 23.1553 22.8995 22.8996ZM15 25.9091C15.3617 25.9091 15.7085 26.0528 15.9642 26.3085C16.22 26.5643 16.3636 26.9111 16.3636 27.2728V28.6364C16.3636 28.9981 16.22 29.3449 15.9642 29.6006C15.7085 29.8564 15.3617 30 15 30C14.6383 30 14.2915 29.8564 14.0358 29.6006C13.78 29.3449 13.6364 28.9981 13.6364 28.6364V27.2728C13.6364 26.9111 13.78 26.5643 14.0358 26.3085C14.2915 26.0528 14.6383 25.9091 15 25.9091Z" fill="#2E4051"/>
</svg>
