<svg width="29" height="25" viewBox="0 0 29 25" xmlns="http://www.w3.org/2000/svg">
<path d="M29 3.28361C27.9335 3.76468 26.7879 4.08974 25.5835 4.23666C26.8262 3.47967 27.7559 2.28825 28.1992 0.884715C27.0316 1.59072 25.7538 2.08766 24.4213 2.35395C23.5252 1.37992 22.3382 0.734314 21.0448 0.517371C19.7513 0.300428 18.4237 0.524285 17.268 1.15419C16.1123 1.78409 15.1932 2.7848 14.6535 4.00094C14.1137 5.21708 13.9834 6.58062 14.2829 7.87986C11.9171 7.75893 9.60276 7.13295 7.49002 6.04253C5.37727 4.95212 3.51336 3.42164 2.01925 1.55042C1.50837 2.44757 1.21461 3.48774 1.21461 4.59552C1.21404 5.59278 1.45528 6.57476 1.91692 7.45434C2.37855 8.33392 3.04632 9.0839 3.86096 9.63774C2.91619 9.60714 1.99226 9.34725 1.16608 8.87972V8.95773C1.16598 10.3564 1.64124 11.7121 2.5112 12.7947C3.38116 13.8772 4.59225 14.6201 5.93896 14.8971C5.06253 15.1386 4.14365 15.1741 3.25174 15.0011C3.6317 16.2046 4.37183 17.257 5.36852 18.011C6.36521 18.765 7.56855 19.1828 8.81009 19.206C6.70251 20.8903 4.09965 21.8039 1.42024 21.7999C0.945611 21.8001 0.471383 21.7718 0 21.7154C2.71976 23.4956 5.88575 24.4404 9.11917 24.4368C20.0647 24.4368 26.0484 15.2079 26.0484 7.20375C26.0484 6.9437 26.042 6.68106 26.0305 6.42102C27.1944 5.56415 28.1991 4.50307 28.9974 3.28751L29 3.28361Z"/>
</svg>
