<svg class="force-stroke-txt-color" xmlns="http://www.w3.org/2000/svg" viewBox="0 0 842.3 594.4"><path class="fill-bg-color-dark" d="M768.56,384.07,766.79,401,753,434q-2.41,5.79-4.84,11.56a16.69,16.69,0,0,1-3.08,4.9.75.75,0,0,1-.58.34c-.39,0-.53-.52-.56-.91a94.18,94.18,0,0,0-1.49-12.42c-4.31-19.81-27.31-27.07-45.35-26.62a50.85,50.85,0,0,0-20.86,4.83c-9.42,4.56-13.09,17.24-13.59,17.71l-.4,1.63-6.46,26.91c-1.36,6-2.4,9.17-7.94,10.77-.18.06-5.7,3-5.88,3-2.14.6,3.72-.69,1.4-1.08L636,473.44l-3.13-.72L587.2,461.91q2.65.45,5.42,1l10.6,2.53L600.42,452c-7.29-41.84,4.79-79.8,25.37-100.41,5.42-5.42,8.11-6.81,14.43-10.42l3.55,8.41s36.32,10.83,44.88-22.4c3.46.3,10.11.25,13.54,1a83.18,83.18,0,0,1,45.95,27.12c1.05,1.2,2.08,2.44,3.1,3.7l.54.66c.63.79,1.3,1.6,1.93,2.41l.45.64A211.75,211.75,0,0,1,768.56,384.07Z" transform="translate(-109.98 -26.06)" fill="#353642"></path><path d="M169,400.37c5.76-28.8,8.14-230.93,268.08-254.31,155.28-14.19,71.34-57,121.9-103.85S800.71,72.44,750.7,192.82s115.08-13.23,185,139.25A157.83,157.83,0,0,1,950,402.69a172.42,172.42,0,0,1-19.37,73.69c-22.33,43.62-63.81,82.48-123.8,106.56q-13.28,5.41-27.8,9.73" transform="translate(-109.98 -26.06)" fill="none" stroke="#ccdde2" stroke-miterlimit="10" stroke-width="4.52"></path><path class="fill-bg-color-dark" d="M820.62,618.18h-189L626,616.5s-1.14-64.17-8.68-80.59l28,9.52,27.12,7.8s37.31.78,58.64-37.3c0,0,3.59-9.09,6.81-25.48,2.78-14.22,17.56-92.62,23.76-110.13,6.69,11.69,17.17,31.8,22.23,44.06,5.48,13.31,10.09,26.57,13.86,38.86h0A486,486,0,0,1,812.55,525,540.38,540.38,0,0,1,820.62,618.18Z" transform="translate(-109.98 -26.06)" fill="#353642"></path><path d="M828.88,446h0c-1.21,14.13-10.79,16.43-10.79,16.43-8.1,4.79-20.54-.36-23.05-9.34a.8.8,0,0,1-.06-.3c-2-7.69-5.9-17.57-11.14-28.38-10.1-24.44-23.23-49.08-40.07-68.57a83.18,83.18,0,0,0-45.95-27.12c-.06,0-.09-.06-.15-.06C674,321.53,662.42,307,657.42,293v-.06c-2.14-8.83-4.32-17.44-3.15-22.65,2-9.13,3-19,.51-21-3.13-2.62-8.79-.68-23.19,2.22C619.12,254,612.47,252.59,611,245a18,18,0,0,1-.36-3.59c-.06.76-3-2.26-3.14-1.54-.94,3.89-2.82,5.45-6.92,7.16-6.09,2.53-8.58,12.3-9.48,18.81-.94,6.93,2.18,16.49,4.65,23-3.16-3.61-6.78-3.19-12.44-1-1.42.54-5,.39-7.83-.6a3.6,3.6,0,0,1,1.38-.73c.91-.3-5.69-3.58-4.73-3.79,9.61-2.17,15-10.18,13.86-17.23-2.83-17.75.94-38.63,12.93-52.46,13.22-15.21,34.79-18.37,53.05-11.41,14.34,5.45,27.9,16.63,32.87,31.54a.22.22,0,0,0,.06.18,38.86,38.86,0,0,1,1.45,5.81c1.83,11.09-2.08,22.33-4.25,33.29-.78,3.95,1.2,8.26,1.62,11.39,2.41,18.8,24.11,24.11,41.28,32.09,36.09,16.81,65.56,45.55,85.38,80.5C823.51,419.53,828.21,435.31,828.88,446Z" transform="translate(-109.98 -26.06)" fill="#3fbdf1"></path><path d="M638.62,337.44c-.39.21-.78.42-1.14.66a84.69,84.69,0,0,0-17.72,13.56c-20.57,20.61-32.65,58.57-25.36,100.41l2.8,13.37" transform="translate(-109.98 -26.06)" fill="none" stroke="#000" stroke-miterlimit="10" stroke-width="4.52"></path><path d="M820.62,618.18A542,542,0,0,0,812.55,525a486,486,0,0,0-14.82-61.73h0c-3.77-12.29-8.38-25.55-13.86-38.86a316.74,316.74,0,0,0-17.6-36.28,203.92,203.92,0,0,0-22.47-32.29,83.18,83.18,0,0,0-45.95-27.12,86.81,86.81,0,0,0-10.39-1.56" transform="translate(-109.98 -26.06)" fill="none" stroke="#000" stroke-miterlimit="10" stroke-width="4.52"></path><path d="M451,346.35l-.51-.09A37,37,0,0,0,417,357.86l-34.2,37.26-4,4.4a9.58,9.58,0,0,0-.7.85" transform="translate(-109.98 -26.06)" fill="none" stroke="#000" stroke-miterlimit="10" stroke-width="4.52"></path><polyline points="291.63 384.04 310.4 363.21 310.43 363.19" fill="none" stroke="#000" stroke-miterlimit="10" stroke-width="4.52"></polyline><path d="M564.89,517.64l88.29,31.11a62.78,62.78,0,0,0,80.09-38.35,64.1,64.1,0,0,0,2.4-8.81L756.56,395a41.38,41.38,0,0,0-6.78-31.75,38.33,38.33,0,0,0-2.92-3.68" transform="translate(-109.98 -26.06)" fill="none" stroke="#000" stroke-miterlimit="10" stroke-width="4.52"></path><path d="M506.46,513.34c-11.24,7.59-19.5,30.64-23.89,45.77a12.24,12.24,0,0,1-11.78,8.76,12.42,12.42,0,0,1-5.19-1.14,12.26,12.26,0,0,1-6.8-13.59c7.35-35.94,33.29-106.89,122.4-91.25q2.67.45,5.42,1l10.58,2.55,29.67,7.23,8,1.93a17,17,0,0,0,9.19-.33,5.44,5.44,0,0,0,.54-.15,17.21,17.21,0,0,0,11.15-12.26l6.75-28.08.39-1.63,8.84-36.71" transform="translate(-109.98 -26.06)" fill="none" stroke="#000" stroke-miterlimit="10" stroke-width="4.52"></path><path d="M463,398.27H432.76a13,13,0,0,1-13-13h0a13,13,0,0,1,13-13H475.6" transform="translate(-109.98 -26.06)" fill="none" stroke="#000" stroke-miterlimit="10" stroke-width="4.52"></path><path d="M439.79,398.26c-.43,5.3-2.45,9.22-5.43,11.93-7.68,7-21.75,6.2-31.54,1.41" transform="translate(-109.98 -26.06)" fill="none" stroke="#000" stroke-miterlimit="10" stroke-width="4.52"></path><path d="M382.84,395.11c-8.67-10.48-6.9-24.69-.17-35.67,19.09-31.16,62.71-25.18,91-12.23,22.92,10.46,43,26.18,62.55,41.86,9.55,7.66,18.93,15.64,28,24a14.85,14.85,0,0,0,21-1.05,14.62,14.62,0,0,0,2-2.85c5-9.23,10.41-19.3,11.43-22.09" transform="translate(-109.98 -26.06)" fill="none" stroke="#000" stroke-miterlimit="10" stroke-width="4.52"></path><path d="M434.37,410.19s45.11,24.47,78.62,59.63" transform="translate(-109.98 -26.06)" fill="none" stroke="#000" stroke-miterlimit="10" stroke-width="4.52"></path><path d="M495.45,526.61c-5,8.54-.7,21.08,8.75,24.08a89.39,89.39,0,0,0,37.43,3.75c13.75-1.6,22.89-13,28.91-26a7.56,7.56,0,0,0-3.79-10,6.13,6.13,0,0,0-.75-.29h0a7.62,7.62,0,0,0-9.4,4.29c-2,4.62-5.09,10.4-9.19,13" transform="translate(-109.98 -26.06)" fill="none" stroke="#000" stroke-miterlimit="10" stroke-width="4.52"></path><path d="M519,525s-12.35,13.28-2.61,27.34a8.32,8.32,0,0,0,1.5,1.58" transform="translate(-109.98 -26.06)" fill="none" stroke="#000" stroke-miterlimit="10" stroke-width="4.52"></path><path d="M535.29,527.2s-11.42,25.7,3.23,27.58" transform="translate(-109.98 -26.06)" fill="none" stroke="#000" stroke-miterlimit="10" stroke-width="4.52"></path><line x1="830.76" y1="592.14" x2="123.52" y2="592.14" fill="none" stroke="#000" stroke-miterlimit="10" stroke-width="4.52"></line><path d="M511.73,569.77H441.2a27.12,27.12,0,0,1-27,24.22H177.14a24.24,24.24,0,0,0,24.19,24.19h310.4A24.28,24.28,0,0,0,536,594V577.73a8,8,0,0,0-8-8Z" transform="translate(-109.98 -26.06)" fill="none" stroke="#000" stroke-miterlimit="10" stroke-width="4.52"></path><path d="M402.82,411.6a27.22,27.22,0,0,1,4.4,9.58l33.41,139.34a26.18,26.18,0,0,1,.57,9.25,27.12,27.12,0,0,1-27,24.22H172.74a27.14,27.14,0,0,1-26.39-20.82L113,433.84a27.13,27.13,0,0,1,26.39-33.47H380.83a26.92,26.92,0,0,1,20.78,9.73Z" transform="translate(-109.98 -26.06)" fill="none" stroke="#000" stroke-miterlimit="10" stroke-width="4.52"></path><path d="M697.82,328.69c-.06,0-.09-.06-.15-.06-23.71-7.14-35.25-21.72-40.25-35.7v-.06c-3.91-10.9-3.82-21.45-2.41-27.75a56.48,56.48,0,0,0,1.6-10.18c.33-9.73-6.81-7.35-27.23-3.28C620,253.56,614,250,611,244.94a9.38,9.38,0,0,1-.76-1.39,18.15,18.15,0,0,1-1.68-9.46" transform="translate(-109.98 -26.06)" fill="none" stroke="#000" stroke-miterlimit="10" stroke-width="4.52"></path><path d="M596.81,290.13a14,14,0,0,0-1.09-1.39c-3.16-3.61-6.78-3.19-12.44-1-1.42.54-5,.39-7.83-.6-2.38-.85-4.16-2.32-3.35-4.52a3.24,3.24,0,0,1,2.23-1.81,27.82,27.82,0,0,1,2.86-.57c9.71-2.17,7.54-13.41,6.36-20.46-2.86-17.74.94-38.62,13.05-52.45,13.34-15.21,35.16-18.38,53.59-11.42,16.21,6.12,31.46,19.4,34.62,37.15a.22.22,0,0,0,.06.18c.06.06,0,.15,0,.21,1.87,11.09,0,23.11-2.17,34.08-1.3,6.5-.81,11.81,1,16.2,5.67,14.37,24.8,19.38,40.22,26.49,36.49,16.81,66.22,45.55,86.26,80.5,15.82,27.72,19.57,44.77,18.7,55.29h0c-1.21,14.13-10.79,16.43-10.79,16.43-8.1,4.79-20.55-.36-23.05-9.34a.8.8,0,0,1-.06-.3c-2-7.69-5.9-17.57-11.14-28.38" transform="translate(-109.98 -26.06)" fill="none" stroke="#000" stroke-miterlimit="10" stroke-width="4.52"></path><path d="M608.52,234.09c0,5.35-2.52,10.63-8,12.88-6.16,2.54-8.66,9.23-9.56,15.74a42,42,0,0,0,5.81,27.41c4.65,7.72,12.22,16.23,22.94,16.23,19.64,0,28.06-9.47,28.06-9.47" transform="translate(-109.98 -26.06)" fill="none" stroke="#000" stroke-miterlimit="10" stroke-width="4.52"></path><circle class="fill-bg-color-dark" cx="518.93" cy="236.38" r="3.34"></circle><circle cx="489.55" cy="238.33" r="3.34" class="fill-bg-color-dark"></circle><path d="M613.94,259.3s-1.67,13.19-1,15,4.85-.26,4.85-.26" transform="translate(-109.98 -26.06)" fill="none" stroke="#000" stroke-miterlimit="10" stroke-width="4.52"></path><path d="M620.13,285.58c7.15,2.63,14.53-.72,16.69-7.15" transform="translate(-109.98 -26.06)" fill="none" stroke="#000" stroke-miterlimit="10" stroke-width="4.52"></path><ellipse cx="633.46" cy="258.27" rx="15.22" ry="15.59" transform="translate(-52.97 600.56) rotate(-54.76)" fill="none" stroke="#000" stroke-miterlimit="10" stroke-width="4.52"></ellipse><ellipse cx="594.41" cy="260.23" rx="15.22" ry="15.59" transform="translate(-71.09 569.49) rotate(-54.76)" fill="none" stroke="#000" stroke-miterlimit="10" stroke-width="4.52"></ellipse><path d="M594.13,249.63a11,11,0,0,1,11,10.16,10.22,10.22,0,0,1-2.54,7.62,10.37,10.37,0,0,1-7.34,3.5h-.56a11,11,0,0,1-11-10.17,10.27,10.27,0,0,1,2.55-7.62,10.43,10.43,0,0,1,7.33-3.5h.56m0-2.26h-.67a12.6,12.6,0,0,0-12,13.15c0,.13,0,.26,0,.39a13.34,13.34,0,0,0,13.26,12.26h.67a12.6,12.6,0,0,0,12-13.15c0-.13,0-.26,0-.39A13.34,13.34,0,0,0,594.13,247.36Z" transform="translate(-109.98 -26.06)" fill="#fff"></path><line x1="508.06" y1="233.03" x2="499.86" y2="233.45" fill="none" stroke="#000" stroke-miterlimit="10" stroke-width="4.52"></line><ellipse cx="633.46" cy="258.27" rx="12.89" ry="13.2" transform="translate(-52.97 600.56) rotate(-54.76)" fill="#fff" opacity="0.53" style="isolation: isolate;"></ellipse><ellipse cx="594.41" cy="260.23" rx="12.89" ry="13.2" transform="translate(-71.09 569.49) rotate(-54.76)" fill="#fff" opacity="0.53" style="isolation: isolate;"></ellipse><path d="M625.56,306.35l18.21,43.26s35.13,9.45,43.67-23.79" transform="translate(-109.98 -26.06)" fill="none" stroke="#000" stroke-miterlimit="10" stroke-width="4.52"></path><ellipse class="fill-bg-color-dark" cx="271.23" cy="502.58" rx="26.11" ry="29.34" transform="translate(-248.56 78.76) rotate(-17.5)" fill="#d7e8f0"></ellipse><path d="M620.7,618.18c-.39-35.21-6.6-70-9.46-84.2" transform="translate(-109.98 -26.06)" fill="none" stroke="#000" stroke-miterlimit="10" stroke-width="4.52"></path></svg>